<svg width="1094" height="533" viewBox="0 0 1094 533" fill="none" xmlns="http://www.w3.org/2000/svg">
<path opacity="0.1" fill-rule="evenodd" clip-rule="evenodd" d="M1034 162.785C1034 162.785 1036.02 150.973 1046.97 151C1055.02 151.018 1057.29 156.124 1057.29 156.124C1057.29 156.124 1062.02 153.432 1066.58 155.265C1072.52 157.656 1073.23 162.644 1073.23 162.644C1073.23 162.644 1050.83 162.785 1034 162.785Z" fill="white"/>
<path opacity="0.1" fill-rule="evenodd" clip-rule="evenodd" d="M1094 533C1094 533 1090.92 514.961 1074.16 515C1061.84 515.028 1058.38 522.826 1058.38 522.826C1058.38 522.826 1051.13 518.715 1044.17 521.515C1035.08 525.166 1034 532.786 1034 532.786C1034 532.786 1068.26 533 1094 533Z" fill="white"/>
<path opacity="0.1" fill-rule="evenodd" clip-rule="evenodd" d="M937.653 227.345C937.653 227.345 931.306 217.035 916.669 218.073C904.173 218.957 899.669 227.698 899.669 227.698C899.669 227.698 893.42 223.306 886.338 226.156C877.099 229.874 876 237.631 876 237.631L978.845 239.768C978.845 239.768 971.919 227.491 958.669 232.073C953.919 224.323 942.169 224.073 937.653 227.345Z" fill="white"/>
<path opacity="0.1" fill-rule="evenodd" clip-rule="evenodd" d="M385.479 13.7212C385.479 13.7212 394.798 -1.41621 416.289 0.107812C434.636 1.40573 441.248 14.2395 441.248 14.2395C441.248 14.2395 450.423 7.79105 460.821 11.9755C474.386 17.4344 476 28.8234 476 28.8234L325 31.961C325 31.961 335.169 13.9356 354.623 20.663C361.597 9.28424 378.849 8.91719 385.479 13.7212Z" fill="white"/>
<path opacity="0.2" fill-rule="evenodd" clip-rule="evenodd" d="M1023.96 265.893C1023.96 265.893 1019.23 256.283 1008.56 257.043C999.442 257.691 997.076 266 997.076 266C997.076 266 991.703 262.932 986.539 265.021C979.802 267.746 979 273.434 979 273.434L1054 275C1054 275 1045.69 259.513 1023.96 265.893Z" fill="white"/>
<path opacity="0.2" fill-rule="evenodd" clip-rule="evenodd" d="M-9.54127 501.34C-9.54127 501.34 -2.53896 486.924 13.2578 488.064C26.7456 489.037 30.2476 501.5 30.2476 501.5C30.2476 501.5 38.1996 496.898 45.8429 500.032C55.8137 504.12 57 512.651 57 512.651L-54 515C-54 515 -41.7036 491.769 -9.54127 501.34Z" fill="white"/>
</svg>
