<svg viewBox="0 0 815 678" style="height: 100%;z-index: 1;" fill="none" xmlns="http://www.w3.org/2000/svg">
<path fill-rule="evenodd" clip-rule="evenodd" d="M170.796 650C137.954 650 72.2688 649.014 83.2162 662.014C94.1637 675.014 169 687 258 668C347 649 507.807 667.807 537 674C566.193 680.193 703.572 676 699.923 663C696.274 650 606.385 644 495.571 644C384.756 644 203.638 650 170.796 650Z" fill="#CD718E"/>
<path d="M332.949 210.75C332.949 217.25 333.049 223.8 333.049 230.3C333.049 231.25 333.049 232.2 333.149 233.15C333.249 233.9 333.149 234.6 334.099 234.6C337.849 234.6 348.549 235.35 348.549 229.1C348.549 222.75 340.849 221.55 340.999 221.35C342.399 219.45 345.149 217.4 345.099 212.35C345.099 208.1 343.799 202.85 339.949 200.45C338.649 199.65 336.349 198.85 334.799 198.85C333.349 198.85 332.899 198.95 332.899 200.35C332.899 201.1 332.949 202.35 332.949 203.1C333.049 205.6 332.949 208.05 332.949 210.55V210.75ZM344.599 228.3C344.599 230.35 341.849 230.95 337.899 230.95C337.099 230.95 336.849 230.5 336.849 229.75C336.849 228.55 336.999 227.35 336.999 226.15C336.999 225.5 336.999 225.05 337.749 225.05C339.449 225.05 344.449 225.4 344.549 228.3H344.599ZM339.099 205.3C341.549 208.5 341.849 218.05 337.149 219.65C337.049 219.65 336.949 219.6 336.899 219.6C336.799 219.5 336.799 219.35 336.799 219.25C336.799 214.5 336.449 208.8 336.449 204.05C336.449 202.3 338.799 204.95 339.099 205.3ZM363.245 234.1C363.795 233.15 364.045 232.05 364.045 230.95C364.045 228.2 362.145 224.75 359.845 223.2C358.845 222.55 356.995 222.35 356.295 221.65C355.595 221.05 355.545 220.15 355.545 219.3C355.545 214.3 355.945 209.25 356.245 204.25C356.395 202 356.795 199.85 356.795 197.6C356.795 196.25 356.645 195.45 355.095 195.45C352.545 195.45 352.395 196.25 352.395 198.55C352.395 200.6 352.545 202.65 352.545 204.7C352.545 209.65 352.495 214.55 352.345 219.5C352.195 224.05 351.745 228.55 351.745 233.1C351.745 234.7 351.795 236.35 351.995 237.95C355.945 237.75 360.945 238.1 363.245 234.1ZM370.745 231.9C370.495 229.3 370.595 226.65 370.545 224.05C370.445 218.15 370.245 212.25 370.245 206.35C370.245 203.85 370.345 201.3 370.345 198.8C370.345 198.55 370.395 198 370.245 197.8C369.995 197.35 367.245 197.35 366.645 197.35C366.795 207.65 366.895 218 366.895 228.3C366.895 230.05 366.695 231.8 366.695 233.5C366.695 234.25 366.795 234.95 366.845 235.65C366.995 236.65 366.845 236.9 367.995 236.9C368.645 236.9 370.795 236.85 371.095 236.25C370.995 235.95 371.145 235.3 371.145 235C371.145 233.95 370.895 232.95 370.745 231.9ZM355.895 225.4C355.995 225.4 356.095 225.35 356.195 225.35C357.995 225.35 359.945 227.75 359.945 229.5C359.945 231.4 358.095 233.7 356.145 233.7C354.995 233.7 355.395 231.35 355.395 230.65C355.395 229.45 355.095 228.3 355.095 227.15C355.095 226.5 355.195 225.6 355.895 225.4ZM380.971 235.8C381.371 235.9 381.821 235.95 382.271 235.95C389.321 235.95 390.121 228.85 390.121 223.35C390.121 220.95 389.971 218.4 389.421 216C387.921 209.15 380.221 208.65 380.221 205.25C380.221 202.7 385.621 202.2 387.421 202.2C388.471 202.2 389.521 202.4 390.521 202.4C390.621 202.4 390.721 202.15 390.721 202.1C391.071 201.1 391.371 198.95 391.371 197.95C391.371 197.8 391.371 197.6 391.271 197.5L390.421 197.45C386.271 197.45 380.071 198.1 377.071 201.25C376.121 202.25 375.321 203.5 375.321 204.95C375.321 212.75 384.721 212.4 386.171 216.05C385.671 215.95 385.121 215.9 384.621 215.9C378.671 215.9 376.321 217.9 376.321 224C376.321 227.55 376.771 234.65 380.971 235.8ZM382.971 234.75L383.021 234.7V234.75H382.971ZM381.271 220.7C382.471 219.75 384.021 219.3 385.471 219.15C385.721 220.45 385.871 221.75 385.871 223.05C385.871 225.2 385.221 230.2 384.121 232C383.721 232.35 383.271 232.6 382.771 232.8C380.471 232.5 380.721 228.3 380.721 226.55C380.721 224.6 380.921 222.6 381.271 220.7ZM407.138 233.25C415.288 233.25 418.288 225.2 418.288 218.25C418.288 211.45 416.438 201.15 407.688 201.15C399.138 201.15 396.238 209.2 396.238 216.5C396.238 223.2 398.738 233.25 407.138 233.25ZM407.688 204.85C412.938 204.85 414.538 212.75 414.538 216.8C414.538 221.2 412.838 229.6 407.138 229.6C402.738 229.6 400.438 222.25 400.138 218.7C399.988 217.7 399.988 216.6 399.988 215.55C399.988 210.3 401.388 204.85 407.688 204.85ZM422.109 197.65C422.009 198.85 421.959 200 421.959 201.2C421.959 205.3 422.509 209.35 422.709 213.4C423.059 219.85 423.059 226.3 423.059 232.75C423.059 235.1 423.109 235.75 425.709 235.75C427.309 235.75 427.409 235.25 427.409 233.7C427.409 231.85 426.959 230.1 426.809 228.25C426.509 224.25 426.109 220.25 426.109 216.2C426.109 215.3 425.909 214.35 425.909 213.4C425.909 212.7 426.009 211.95 426.609 211.5C427.309 210.95 429.109 210.8 430.159 210.15C432.259 208.85 434.259 206.15 434.259 203.6C434.259 202.6 433.959 201.65 433.409 200.85C431.059 197.4 425.809 197.8 422.109 197.65ZM429.959 206C429.509 207 427.559 208.35 426.459 208.35C425.559 208.35 425.359 207.55 425.359 206.8C425.359 205.95 425.559 205.15 425.609 204.35C425.659 203.7 425.559 203.1 425.559 202.45C425.559 201.85 425.609 201.25 426.359 201.25C428.109 201.25 430.209 203 430.209 204.85C430.209 205.2 430.109 205.6 429.959 206ZM449.524 234.1C450.074 233.15 450.324 232.05 450.324 230.95C450.324 228.2 448.424 224.75 446.124 223.2C445.124 222.55 443.274 222.35 442.574 221.65C441.874 221.05 441.824 220.15 441.824 219.3C441.824 214.3 442.224 209.25 442.524 204.25C442.674 202 443.074 199.85 443.074 197.6C443.074 196.25 442.924 195.45 441.374 195.45C438.824 195.45 438.674 196.25 438.674 198.55C438.674 200.6 438.824 202.65 438.824 204.7C438.824 209.65 438.774 214.55 438.624 219.5C438.474 224.05 438.024 228.55 438.024 233.1C438.024 234.7 438.074 236.35 438.274 237.95C442.224 237.75 447.224 238.1 449.524 234.1ZM457.024 231.9C456.774 229.3 456.874 226.65 456.824 224.05C456.724 218.15 456.524 212.25 456.524 206.35C456.524 203.85 456.624 201.3 456.624 198.8C456.624 198.55 456.674 198 456.524 197.8C456.274 197.35 453.524 197.35 452.924 197.35C453.074 207.65 453.174 218 453.174 228.3C453.174 230.05 452.974 231.8 452.974 233.5C452.974 234.25 453.074 234.95 453.124 235.65C453.274 236.65 453.124 236.9 454.274 236.9C454.924 236.9 457.074 236.85 457.374 236.25C457.274 235.95 457.424 235.3 457.424 235C457.424 233.95 457.174 232.95 457.024 231.9ZM442.174 225.4C442.274 225.4 442.374 225.35 442.474 225.35C444.274 225.35 446.224 227.75 446.224 229.5C446.224 231.4 444.374 233.7 442.424 233.7C441.274 233.7 441.674 231.35 441.674 230.65C441.674 229.45 441.374 228.3 441.374 227.15C441.374 226.5 441.474 225.6 442.174 225.4Z" fill="#7F4156"/>
<path d="M319.691 227.5H467" stroke="#7F4156" stroke-width="4" stroke-linecap="square"/>
<path d="M297.921 259.15C297.621 257.1 296.321 257.7 294.771 257.7C291.221 257.7 287.671 257.3 284.121 257.3C282.871 257.3 281.921 258.15 281.921 259.4C281.921 270.1 282.121 280.8 282.121 291.5C282.121 293.25 281.921 294.95 281.921 296.7C281.921 297.45 281.971 298.15 282.071 298.9C282.221 299.95 281.871 299.9 283.021 300.15H283.171C283.721 300.15 286.121 300.05 286.321 299.45C286.221 299.25 286.371 298.45 286.371 298.2C286.371 297.15 286.121 296.15 285.971 295.1C285.671 292.25 285.821 289.15 285.771 286.25C285.671 279.9 285.671 273.5 285.471 267.1C285.471 266.05 285.471 265 285.471 263.95V262.1C288.071 262.15 290.621 261.4 293.171 261.4C294.071 261.4 294.071 261.8 294.071 262.6C294.071 263.9 294.021 265.2 294.021 266.5C294.021 273.75 294.271 281 294.321 288.25C294.321 290.25 294.471 292.2 294.471 294.15C294.471 295.25 294.271 296.3 294.271 297.35C294.271 298.7 294.621 298.55 295.621 298.8C296.021 298.9 296.421 299.05 296.821 299.05C298.271 299.05 298.071 296.9 298.071 295.95C298.071 293.85 297.871 291.8 297.871 289.75C297.871 286.95 298.171 284.2 298.171 281.45C298.171 278.55 297.771 275.7 297.771 272.8C297.771 269.55 298.171 266.25 298.171 262.95C298.171 261.65 298.121 260.4 297.921 259.15ZM317.36 263.1C317.31 262.25 317.41 261.35 317.41 260.45C317.41 258.25 316.66 258.35 314.71 258.35C313.86 258.35 312.66 258.45 312.66 259.6C312.66 260.9 313.06 262.2 313.06 263.5C313.06 265.2 312.56 269.25 310.21 269.25C308.61 269.25 307.61 266.8 307.41 265.5C307.11 263.8 307.36 262.15 307.36 260.45C307.36 259.35 307.21 257.7 305.76 257.7C304.26 257.7 303.16 258.4 303.16 260C303.16 264.25 304.21 272.45 309.86 272.45C311.91 272.45 313.21 270.6 313.91 268.85C314.21 269.4 314.21 270.2 314.21 270.8C314.21 274.3 313.96 277.75 313.86 281.25C313.76 283.9 313.61 286.6 313.36 289.3C313.16 291.25 313.11 294.2 311.61 295.7C311.21 296.05 310.71 296.45 310.11 296.45C307.96 296.45 307.46 291.05 307.46 289.5C307.46 289 307.81 288.65 307.81 288.15C307.81 287.9 307.56 287.75 307.31 287.75C304.31 287.75 304.26 290.4 304.26 292.65C304.26 296.75 306.56 299.7 310.81 299.7C317.16 299.7 317.56 289.25 317.91 284.75C318.11 281.85 318.26 279 318.26 276.1C318.26 271.75 317.66 267.45 317.36 263.1ZM325.248 260.4C327.148 260.75 327.148 260.7 327.148 262.65C327.148 273.95 327.898 285.3 327.898 296.65C327.898 297.4 327.748 298.1 327.748 298.85C327.748 300.35 328.048 300.1 329.148 300.5C329.698 300.7 330.248 301 330.798 301C331.398 301 331.398 300.4 331.398 299.95C331.398 299.55 331.398 299.2 331.348 298.8C330.998 292.8 331.048 286.75 331.048 280.7C330.998 274.9 330.998 269.05 330.748 263.25C330.698 262.7 330.648 262.15 330.648 261.6C330.648 259.25 334.498 261.05 334.498 259.55C334.498 258.85 334.398 258.15 334.398 257.45C334.398 256.4 333.198 256.45 332.398 256.45C331.298 256.45 330.198 256.65 329.098 256.65C327.648 256.65 326.198 256.45 324.698 256.45C322.248 256.45 322.348 257 322.348 259.25C322.348 259.45 322.348 259.65 322.398 259.8C322.748 260.2 324.648 260.35 325.248 260.4ZM349.638 295.1C353.438 294 355.488 289.1 355.488 285.4C355.488 284.85 355.488 284.45 354.788 284.45C353.888 284.45 353.038 284.3 352.138 284.3C351.688 284.3 351.288 284.3 350.888 284.55C350.088 285.05 350.988 291.35 347.788 291.35C344.538 291.35 344.438 284.05 344.238 281.8C344.188 280.9 343.988 280 343.988 279.1C343.988 277.3 345.538 277 346.988 277C348.688 277 350.388 277.15 352.088 277.15C353.988 277.15 355.188 276.85 355.188 274.65C355.188 270.15 352.738 262 347.188 262C339.988 262 339.538 273.9 339.538 278.95C339.538 283.85 341.138 295.4 347.738 295.4C348.388 295.4 349.038 295.3 349.638 295.1ZM344.538 272.05C344.538 271.65 344.538 271.25 344.538 270.8C344.538 269.2 344.588 265.9 346.838 265.9C349.138 265.9 350.888 270.05 350.888 271.95C350.888 273.15 350.238 273 349.338 273.15C348.188 273.35 346.988 273.7 345.788 273.7C345.438 273.7 344.438 273.6 344.438 273.1C344.438 272.75 344.538 272.4 344.538 272.05ZM379.64 297.3C380.34 297.25 380.79 296.8 380.89 296.15C381.19 294.45 381.04 292.4 381.04 290.7C381.04 282.9 380.69 275.1 380.69 267.3C380.69 265.85 380.84 264.4 380.84 262.9C380.84 262.25 380.79 261.6 380.69 260.95C380.54 260.1 380.79 259.9 379.64 259.9C379.19 259.9 376.99 259.95 376.79 260.5C376.89 260.65 376.79 261.35 376.79 261.55C376.79 262.45 376.99 263.35 377.09 264.2C377.39 266.7 377.29 269.35 377.29 271.85C377.39 277.35 377.44 282.9 377.59 288.4C377.59 289.5 377.59 290.65 377.59 291.75V293.65C376.04 293.65 374.84 294.3 373.29 294.3C373.09 286.55 372.64 278.8 372.64 271.05C372.64 269.9 372.84 268.7 372.84 267.5C372.84 266.15 372.64 265.75 371.14 265.75C370.19 265.75 368.94 265.85 368.94 267.1C368.94 267.75 369.19 268.4 369.24 269.05C369.34 270.05 369.24 271.05 369.24 272.1C369.24 272.55 369.29 273 369.29 273.45C369.64 277.45 369.74 281.45 369.89 285.4C369.99 288.35 369.89 291.3 370.04 294.2C369.14 294.15 364.54 293.85 364.49 292.45C364.49 291.5 364.54 290.55 364.54 289.55C364.54 283.1 364.34 276.6 364.29 270.15C364.29 268.45 364.14 266.75 364.14 265.05C364.14 264.1 364.34 263.2 364.34 262.25C364.34 261.1 363.94 261.25 363.09 261.05C362.74 260.95 362.34 260.85 361.99 260.85C361.04 260.85 360.94 261.6 360.89 262.4C360.69 264.7 360.74 267.05 360.69 269.35C360.54 274 360.49 278.7 360.49 283.35C360.49 286.65 360.29 293.15 360.94 296.25C361.14 297.1 361.34 297.55 362.29 297.55C368.04 297.55 373.94 297.65 379.64 297.3ZM395.341 295.1C399.141 294 401.191 289.1 401.191 285.4C401.191 284.85 401.191 284.45 400.491 284.45C399.591 284.45 398.741 284.3 397.841 284.3C397.391 284.3 396.991 284.3 396.591 284.55C395.791 285.05 396.691 291.35 393.491 291.35C390.241 291.35 390.141 284.05 389.941 281.8C389.891 280.9 389.691 280 389.691 279.1C389.691 277.3 391.241 277 392.691 277C394.391 277 396.091 277.15 397.791 277.15C399.691 277.15 400.891 276.85 400.891 274.65C400.891 270.15 398.441 262 392.891 262C385.691 262 385.241 273.9 385.241 278.95C385.241 283.85 386.841 295.4 393.441 295.4C394.091 295.4 394.741 295.3 395.341 295.1ZM390.241 272.05C390.241 271.65 390.241 271.25 390.241 270.8C390.241 269.2 390.291 265.9 392.541 265.9C394.841 265.9 396.591 270.05 396.591 271.95C396.591 273.15 395.941 273 395.041 273.15C393.891 273.35 392.691 273.7 391.491 273.7C391.141 273.7 390.141 273.6 390.141 273.1C390.141 272.75 390.241 272.4 390.241 272.05ZM416.793 256.65C415.893 256.15 414.843 255.85 413.793 255.85C407.893 255.85 406.493 261.55 406.143 266.25C405.843 269.9 405.793 273.6 405.793 277.3C405.793 284.2 405.493 294.95 410.843 300.1C411.843 301.05 413.143 301.6 414.543 301.6C416.243 301.6 417.793 300.75 418.893 299.45C421.243 296.55 421.093 292.4 421.343 288.9C420.543 289.05 419.693 289.15 418.843 289.25C417.593 289.35 417.593 289 417.293 290.35C416.993 291.6 417.193 292.85 416.893 294.1C416.593 295.3 415.593 297.2 414.143 297.2C409.243 297.2 409.643 279.9 409.643 276.55C409.643 274.9 409.543 273.2 409.543 271.5C409.543 268.85 409.543 260.3 413.493 260.3C418.093 260.3 417.243 270 417.743 272.95C417.943 274.05 417.643 273.8 418.693 274.1C419.093 274.2 419.543 274.2 419.943 274.2C420.493 274.2 421.043 274.15 421.543 274.2C421.593 273.65 421.593 273.1 421.593 272.55C421.593 268.2 420.893 259.1 416.793 256.65ZM428.52 260.4C430.42 260.75 430.42 260.7 430.42 262.65C430.42 273.95 431.17 285.3 431.17 296.65C431.17 297.4 431.02 298.1 431.02 298.85C431.02 300.35 431.32 300.1 432.42 300.5C432.97 300.7 433.52 301 434.07 301C434.67 301 434.67 300.4 434.67 299.95C434.67 299.55 434.67 299.2 434.62 298.8C434.27 292.8 434.32 286.75 434.32 280.7C434.27 274.9 434.27 269.05 434.02 263.25C433.97 262.7 433.92 262.15 433.92 261.6C433.92 259.25 437.77 261.05 437.77 259.55C437.77 258.85 437.67 258.15 437.67 257.45C437.67 256.4 436.47 256.45 435.67 256.45C434.57 256.45 433.47 256.65 432.37 256.65C430.92 256.65 429.47 256.45 427.97 256.45C425.52 256.45 425.62 257 425.62 259.25C425.62 259.45 425.62 259.65 425.67 259.8C426.02 260.2 427.92 260.35 428.52 260.4ZM443.109 272.75C443.109 279.25 443.209 285.8 443.209 292.3C443.209 293.25 443.209 294.2 443.309 295.15C443.409 295.9 443.309 296.6 444.259 296.6C448.009 296.6 458.709 297.35 458.709 291.1C458.709 284.75 451.009 283.55 451.159 283.35C452.559 281.45 455.309 279.4 455.259 274.35C455.259 270.1 453.959 264.85 450.109 262.45C448.809 261.65 446.509 260.85 444.959 260.85C443.509 260.85 443.059 260.95 443.059 262.35C443.059 263.1 443.109 264.35 443.109 265.1C443.209 267.6 443.109 270.05 443.109 272.55V272.75ZM454.759 290.3C454.759 292.35 452.009 292.95 448.059 292.95C447.259 292.95 447.009 292.5 447.009 291.75C447.009 290.55 447.159 289.35 447.159 288.15C447.159 287.5 447.159 287.05 447.909 287.05C449.609 287.05 454.609 287.4 454.709 290.3H454.759ZM449.259 267.3C451.709 270.5 452.009 280.05 447.309 281.65C447.209 281.65 447.109 281.6 447.059 281.6C446.959 281.5 446.959 281.35 446.959 281.25C446.959 276.5 446.609 270.8 446.609 266.05C446.609 264.3 448.959 266.95 449.259 267.3ZM476.005 271.1C476.105 271.35 476.105 271.6 476.105 271.9C476.105 278.7 475.205 285.5 475.205 292.35C475.205 292.95 475.205 294.9 476.105 294.9C476.455 294.9 476.805 294.85 477.205 294.8C478.705 294.7 478.705 295.05 478.905 293.4C479.105 291.8 479.155 290.2 479.155 288.6C479.155 281.65 478.855 274.75 478.855 267.8C478.855 266.6 479.205 265.45 479.205 264.3C479.205 263.35 478.855 262.7 477.805 262.7C477.055 262.7 476.305 262.9 475.705 263.4C475.005 264 474.405 267.1 473.955 268.15C473.105 270.4 471.855 272.45 471.005 274.7C470.155 276.8 467.255 282.45 465.905 284.2C465.705 283.25 465.655 282.25 465.655 281.3C465.655 275.45 465.805 269.65 465.805 263.85C465.805 263.4 465.805 262.5 465.155 262.5C464.355 262.5 462.005 263.2 462.005 264.2C462.005 265.5 462.255 266.75 462.255 268.05C462.255 269.3 462.205 270.6 462.205 271.85C462.205 275.2 462.505 278.55 462.505 281.9C462.505 284.25 462.205 286.6 462.205 289C462.205 289.8 462.255 292.95 463.455 292.95C463.955 292.95 465.755 292.85 466.105 292.6C466.655 292.25 467.005 290.15 467.255 289.45C468.405 286.05 470.155 282.8 471.855 279.6C472.555 278.3 475.355 271.55 476.005 271.15V271.1ZM493.827 295.1C497.627 294 499.677 289.1 499.677 285.4C499.677 284.85 499.677 284.45 498.977 284.45C498.077 284.45 497.227 284.3 496.327 284.3C495.877 284.3 495.477 284.3 495.077 284.55C494.277 285.05 495.177 291.35 491.977 291.35C488.727 291.35 488.627 284.05 488.427 281.8C488.377 280.9 488.177 280 488.177 279.1C488.177 277.3 489.727 277 491.177 277C492.877 277 494.577 277.15 496.277 277.15C498.177 277.15 499.377 276.85 499.377 274.65C499.377 270.15 496.927 262 491.377 262C484.177 262 483.727 273.9 483.727 278.95C483.727 283.85 485.327 295.4 491.927 295.4C492.577 295.4 493.227 295.3 493.827 295.1ZM488.727 272.05C488.727 271.65 488.727 271.25 488.727 270.8C488.727 269.2 488.777 265.9 491.027 265.9C493.327 265.9 495.077 270.05 495.077 271.95C495.077 273.15 494.427 273 493.527 273.15C492.377 273.35 491.177 273.7 489.977 273.7C489.627 273.7 488.627 273.6 488.627 273.1C488.627 272.75 488.727 272.4 488.727 272.05Z" fill="white"/>
<path d="M271.783 391.6C272.583 391.8 273.483 391.9 274.383 391.9C288.483 391.9 290.083 377.7 290.083 366.7C290.083 361.9 289.783 356.8 288.683 352C285.683 338.3 270.283 337.3 270.283 330.5C270.283 325.4 281.083 324.4 284.683 324.4C286.783 324.4 288.883 324.8 290.883 324.8C291.083 324.8 291.283 324.3 291.283 324.2C291.983 322.2 292.583 317.9 292.583 315.9C292.583 315.6 292.583 315.2 292.383 315L290.683 314.9C282.383 314.9 269.983 316.2 263.983 322.5C262.083 324.5 260.483 327 260.483 329.9C260.483 345.5 279.283 344.8 282.183 352.1C281.183 351.9 280.083 351.8 279.083 351.8C267.183 351.8 262.483 355.8 262.483 368C262.483 375.1 263.383 389.3 271.783 391.6ZM275.783 389.5L275.883 389.4V389.5H275.783ZM272.383 361.4C274.783 359.5 277.883 358.6 280.783 358.3C281.283 360.9 281.583 363.5 281.583 366.1C281.583 370.4 280.283 380.4 278.083 384C277.283 384.7 276.383 385.2 275.383 385.6C270.783 385 271.283 376.6 271.283 373.1C271.283 369.2 271.683 365.2 272.383 361.4ZM330.215 369C327.015 355.7 323.415 342.4 320.515 329.1C320.115 327.1 319.715 322.5 317.815 321.6C317.115 321.2 315.815 321.2 315.015 321.2C314.015 321.2 311.615 321.3 310.815 321.9C309.115 323.2 309.315 330.9 309.015 333.1C307.515 342.6 305.915 352.1 304.615 361.6C303.615 369.3 300.915 376.9 300.715 384.6C302.015 385.2 303.815 385.7 305.315 385.7C305.815 385.7 306.315 385.6 306.815 385.5C309.715 384.7 309.115 384.8 309.315 381.8C309.615 376.5 311.015 371.3 311.515 366C312.415 356.3 313.915 346.8 315.415 337.2C316.515 337.9 317.715 347.7 318.215 349.7C319.415 354.6 320.415 359.6 321.615 364.5C322.815 369.2 324.315 373.9 325.515 378.6C326.515 382.9 325.715 385.1 330.915 385.5H332.215C333.115 385.5 334.315 385.5 334.315 384.4C334.315 383.1 330.815 371.5 330.215 369ZM370.045 338.2C370.245 338.7 370.245 339.2 370.245 339.8C370.245 353.4 368.445 367 368.445 380.7C368.445 381.9 368.445 385.8 370.245 385.8C370.945 385.8 371.645 385.7 372.445 385.6C375.445 385.4 375.445 386.1 375.845 382.8C376.245 379.6 376.345 376.4 376.345 373.2C376.345 359.3 375.745 345.5 375.745 331.6C375.745 329.2 376.445 326.9 376.445 324.6C376.445 322.7 375.745 321.4 373.645 321.4C372.145 321.4 370.645 321.8 369.445 322.8C368.045 324 366.845 330.2 365.945 332.3C364.245 336.8 361.745 340.9 360.045 345.4C358.345 349.6 352.545 360.9 349.845 364.4C349.445 362.5 349.345 360.5 349.345 358.6C349.345 346.9 349.645 335.3 349.645 323.7C349.645 322.8 349.645 321 348.345 321C346.745 321 342.045 322.4 342.045 324.4C342.045 327 342.545 329.5 342.545 332.1C342.545 334.6 342.445 337.2 342.445 339.7C342.445 346.4 343.045 353.1 343.045 359.8C343.045 364.5 342.445 369.2 342.445 374C342.445 375.6 342.545 381.9 344.945 381.9C345.945 381.9 349.545 381.7 350.245 381.2C351.345 380.5 352.045 376.3 352.545 374.9C354.845 368.1 358.345 361.6 361.745 355.2C363.145 352.6 368.745 339.1 370.045 338.3V338.2ZM409.19 390.6C411.29 386 411.89 380.9 411.89 375.9C411.89 373.2 411.69 370.5 411.39 367.8C410.59 359.3 408.69 353.7 401.79 352.1C409.59 348.2 410.09 338.5 410.09 330.8C410.09 322.2 408.29 308.9 396.89 308.9C386.69 308.8 382.49 320.3 382.49 326.9C382.49 327.9 388.79 329 389.79 329.2C390.39 325 390.99 317.3 396.59 317.3C401.69 317.3 401.89 325.5 401.89 329.3C401.89 334.2 401.09 339.6 399.99 344.3C398.89 349.1 392.29 348.2 388.49 348C387.29 350.7 387.39 356.3 389.89 356.6H391.69C403.99 356.6 404.99 365.2 404.99 375.5C404.99 379.5 403.49 390.2 398.09 390.2C392.49 390.2 391.89 382.2 391.29 378C390.29 378.2 383.99 378.9 383.99 379.9C383.99 387.7 389.79 398 398.39 398C402.99 398 407.29 394.7 409.19 390.6ZM431.755 388.6C430.555 378.8 429.855 368.9 429.855 359C430.055 360.9 443.955 389.2 445.855 391.3C447.355 391.3 450.755 389.7 450.755 387.9C450.755 386.5 437.255 360.3 435.455 357.6C434.855 356.8 433.355 355 433.355 353.9C433.355 351.3 455.355 327.9 455.355 323.7C455.355 323.5 455.255 323.3 455.255 323.2L451.355 320.5C449.855 321.2 442.955 331 441.355 333.1C437.455 338 432.555 342.3 429.955 348.1C429.955 344.1 430.755 340 430.755 335.9C430.755 332.7 430.555 329.4 430.555 326.2C430.555 321.2 430.855 316.1 430.855 311.1C430.855 310.6 430.955 309.5 430.655 309.1C429.955 308.1 424.155 308.3 422.855 308.2C423.155 332.6 423.255 357 423.255 381.4C423.255 384.7 422.855 388 422.855 391.3C422.855 392.9 423.055 394.5 423.255 396.1C423.555 398.3 423.255 398.6 425.755 398.6C427.155 398.6 431.655 398.5 432.555 397.3C432.255 396.7 432.555 395.4 432.555 394.8C432.555 392.7 432.055 390.6 431.755 388.6ZM479.584 386.5C495.884 386.5 501.884 370.4 501.884 356.5C501.884 342.9 498.184 322.3 480.684 322.3C463.584 322.3 457.784 338.4 457.784 353C457.784 366.4 462.784 386.5 479.584 386.5ZM480.684 329.7C491.184 329.7 494.384 345.5 494.384 353.6C494.384 362.4 490.984 379.2 479.584 379.2C470.784 379.2 466.184 364.5 465.584 357.4C465.284 355.4 465.284 353.2 465.284 351.1C465.284 340.6 468.084 329.7 480.684 329.7ZM513.227 382.3C512.027 382.3 511.027 383.2 511.027 384.4C510.927 387.1 510.827 389.9 510.827 392.7C510.827 393.1 510.727 394.3 511.027 394.7C511.527 395.4 515.127 395.5 516.027 395.5C517.227 395.5 518.127 394.6 518.127 393.4C518.127 390.5 518.127 387.5 518.027 384.5C518.027 383.4 517.227 382.6 516.027 382.5C515.127 382.4 514.127 382.4 513.227 382.3ZM510.027 320.2C511.027 329.3 510.727 339.9 511.027 349.2C511.027 351.3 511.027 353.4 511.027 355.6C511.027 360.6 510.827 365.6 510.827 370.6C510.827 371.1 510.727 372.2 511.027 372.7C511.427 373.4 515.227 373.5 516.027 373.5C517.227 373.5 518.127 372.6 518.127 371.4C518.127 356.6 517.727 341.7 517.727 326.9C517.727 323.6 518.127 320.4 518.127 317.1C518.127 315.6 518.027 314.2 517.827 312.7C517.527 310.9 518.027 310.2 515.727 310.2C514.627 310.2 509.727 310.3 509.327 311.6C509.527 312 509.227 313.5 509.227 314.1C509.227 316.1 509.727 318.2 510.027 320.2Z" fill="white"/>
<path fill-rule="evenodd" clip-rule="evenodd" d="M203 93C203 93 183.13 239.71 180.714 307.009C180.544 311.737 172 310 172 319C172 328 180.073 329.049 180 333C178 441 203 602 203 602C203 602 140 639 124 635C114 623 94 617 94 635C94 653 119 659 124 657C129 655 144 669 167 663C190 657 206 650 215 654C224 658 236 665 251 657C266 649 250 618 243 602C236 586 210 449 210 363C210 277 243 93 243 93H203Z" fill="#E1B2A1"/>
<mask id="mask0_0_39" style="mask-type:alpha" maskUnits="userSpaceOnUse" x="94" y="93" width="164" height="572">
<path fill-rule="evenodd" clip-rule="evenodd" d="M203 93C203 93 183.13 239.71 180.714 307.009C180.544 311.737 172 310 172 319C172 328 180.073 329.049 180 333C178 441 203 602 203 602C203 602 140 639 124 635C114 623 94 617 94 635C94 653 119 659 124 657C129 655 144 669 167 663C190 657 206 650 215 654C224 658 236 665 251 657C266 649 250 618 243 602C236 586 210 449 210 363C210 277 243 93 243 93H203Z" fill="white"/>
</mask>
<g mask="url(#mask0_0_39)">
<path fill-rule="evenodd" clip-rule="evenodd" d="M189 79H247C247 79 270 124 242 138C214 152 189 131 189 131V79Z" fill="#CC9B8A"/>
<path fill-rule="evenodd" clip-rule="evenodd" d="M157 222L181 248L200 340L152 370L157 222Z" fill="#CC9B8A"/>
<path fill-rule="evenodd" clip-rule="evenodd" d="M77.9326 626C81.9326 636 104.933 649 123.933 649C131.933 654 151.933 662 172.933 651C193.933 640 211 626 211 626C211 626 230 632 238 626C246 620 243 601 243 601C243 601 256.13 596.15 257 597C269.761 609.469 256.081 622.879 272.933 626C299.933 631 288.933 660 264.933 667C240.933 674 155.933 684 118.933 674C81.9326 664 73.9326 616 77.9326 626Z" fill="#CC9B8A"/>
</g>
<path fill-rule="evenodd" clip-rule="evenodd" d="M187.952 462.478C187.952 462.478 182.249 474.268 183.293 474.778C184.337 475.288 191.657 464.288 191.657 464.288L187.952 462.478Z" fill="#9D796C"/>
<path fill-rule="evenodd" clip-rule="evenodd" d="M190.952 189.754C190.952 189.754 185.249 201.544 186.293 202.054C187.337 202.564 194.657 191.564 194.657 191.564L190.952 189.754Z" fill="#9D796C"/>
<path fill-rule="evenodd" clip-rule="evenodd" d="M200.761 338.571C200.761 338.571 206.54 350.324 207.585 349.815C208.629 349.307 204.468 336.766 204.468 336.766L200.761 338.571Z" fill="#9D796C"/>
<path fill-rule="evenodd" clip-rule="evenodd" d="M204.525 494.557C204.525 494.557 203.37 510.74 204.525 510.862C205.681 510.985 208.626 494.99 208.626 494.99L204.525 494.557Z" fill="#9D796C"/>
<path fill-rule="evenodd" clip-rule="evenodd" d="M215.144 229.255C215.144 229.255 223.961 242.875 224.957 242.278C225.953 241.68 218.68 227.134 218.68 227.134L215.144 229.255Z" fill="#9D796C"/>
<path fill-rule="evenodd" clip-rule="evenodd" d="M184.525 355.557C184.525 355.557 183.37 371.74 184.525 371.862C185.681 371.985 188.626 355.99 188.626 355.99L184.525 355.557Z" fill="#9D796C"/>
<path fill-rule="evenodd" clip-rule="evenodd" d="M230.925 576.624C230.925 576.624 238.77 590.826 239.805 590.299C240.841 589.773 234.599 574.755 234.599 574.755L230.925 576.624Z" fill="#9D796C"/>
<path fill-rule="evenodd" clip-rule="evenodd" d="M230.925 135.881C230.925 135.881 238.77 150.083 239.805 149.556C240.841 149.029 234.599 134.012 234.599 134.012L230.925 135.881Z" fill="#9D796C"/>
<path fill-rule="evenodd" clip-rule="evenodd" d="M210.925 437.624C210.925 437.624 218.77 451.826 219.805 451.299C220.841 450.773 214.599 435.755 214.599 435.755L210.925 437.624Z" fill="#9D796C"/>
<path fill-rule="evenodd" clip-rule="evenodd" d="M216.892 165.305C216.892 165.305 224.738 179.506 225.773 178.98C226.809 178.453 220.567 163.435 220.567 163.435L216.892 165.305Z" fill="#9D796C"/>
<path fill-rule="evenodd" clip-rule="evenodd" d="M207.267 570.763C207.267 570.763 206.107 581.247 207.267 581.309C208.428 581.37 211.385 570.982 211.385 570.982L207.267 570.763Z" fill="#9D796C"/>
<path fill-rule="evenodd" clip-rule="evenodd" d="M199.267 223.763C199.267 223.763 198.107 234.247 199.267 234.309C200.428 234.37 203.385 223.982 203.385 223.982L199.267 223.763Z" fill="#9D796C"/>
<path fill-rule="evenodd" clip-rule="evenodd" d="M187.267 431.763C187.267 431.763 186.107 442.247 187.267 442.309C188.428 442.37 191.385 431.982 191.385 431.982L187.267 431.763Z" fill="#9D796C"/>
<path fill-rule="evenodd" clip-rule="evenodd" d="M195.904 154.761C195.904 154.761 190.559 160.235 191.195 160.788C191.831 161.341 198.16 156.724 198.16 156.724L195.904 154.761Z" fill="#9D796C"/>
<path fill-rule="evenodd" clip-rule="evenodd" d="M203.204 549.773C203.204 549.773 197.474 556.293 198.227 556.882C198.98 557.471 205.876 551.864 205.876 551.864L203.204 549.773Z" fill="#9D796C"/>
<path fill-rule="evenodd" clip-rule="evenodd" d="M205.768 277.978C205.768 277.978 206.627 286.616 207.572 286.467C208.516 286.318 209.119 277.45 209.119 277.45L205.768 277.978Z" fill="#9D796C"/>
<path fill-rule="evenodd" clip-rule="evenodd" d="M183.204 410.773C183.204 410.773 177.474 417.293 178.227 417.882C178.98 418.471 185.876 412.864 185.876 412.864L183.204 410.773Z" fill="#9D796C"/>
<path fill-rule="evenodd" clip-rule="evenodd" d="M197.077 127.826C197.077 127.826 188.551 136.132 189.872 137.058C191.193 137.985 201.764 131.115 201.764 131.115L197.077 127.826Z" fill="#9D796C"/>
<path fill-rule="evenodd" clip-rule="evenodd" d="M192.636 526.472C192.636 526.472 187.507 536.084 188.182 536.475C188.857 536.865 195.032 527.858 195.032 527.858L192.636 526.472Z" fill="#9D796C"/>
<path fill-rule="evenodd" clip-rule="evenodd" d="M195.636 251.472C195.636 251.472 190.507 261.084 191.182 261.475C191.857 261.865 198.032 252.858 198.032 252.858L195.636 251.472Z" fill="#9D796C"/>
<path fill-rule="evenodd" clip-rule="evenodd" d="M209.349 471.654C209.349 471.654 214.111 481.453 214.824 481.136C215.537 480.819 211.879 470.529 211.879 470.529L209.349 471.654Z" fill="#9D796C"/>
<path fill-rule="evenodd" clip-rule="evenodd" d="M215.317 199.334C215.317 199.334 220.079 209.133 220.792 208.816C221.505 208.499 217.847 198.209 217.847 198.209L215.317 199.334Z" fill="#9D796C"/>
<path fill-rule="evenodd" clip-rule="evenodd" d="M203.367 593.103C203.367 593.103 200.692 599.712 201.367 600.103C202.042 600.493 205.367 595.103 205.367 595.103L203.367 593.103Z" fill="#9D796C"/>
<path fill-rule="evenodd" clip-rule="evenodd" d="M201.367 448.103C201.367 448.103 198.692 454.712 199.367 455.103C200.042 455.493 203.367 450.103 203.367 450.103L201.367 448.103Z" fill="#9D796C"/>
<path fill-rule="evenodd" clip-rule="evenodd" d="M207.335 175.783C207.335 175.783 204.659 182.393 205.335 182.783C206.01 183.174 209.335 177.783 209.335 177.783L207.335 175.783Z" fill="#9D796C"/>
<path fill-rule="evenodd" clip-rule="evenodd" d="M229.122 558.339C229.122 558.339 235.582 561.357 236.007 560.703C236.433 560.049 231.223 556.446 231.223 556.446L229.122 558.339Z" fill="#9D796C"/>
<path fill-rule="evenodd" clip-rule="evenodd" d="M208.122 315.275C208.122 315.275 214.582 318.293 215.007 317.639C215.433 316.985 210.223 313.382 210.223 313.382L208.122 315.275Z" fill="#9D796C"/>
<path fill-rule="evenodd" clip-rule="evenodd" d="M209.122 419.339C209.122 419.339 215.582 422.357 216.007 421.703C216.433 421.049 211.223 417.446 211.223 417.446L209.122 419.339Z" fill="#9D796C"/>
<path fill-rule="evenodd" clip-rule="evenodd" d="M215.089 147.019C215.089 147.019 221.55 150.037 221.975 149.383C222.4 148.729 217.191 145.127 217.191 145.127L215.089 147.019Z" fill="#9D796C"/>
<path fill-rule="evenodd" clip-rule="evenodd" d="M216.908 527.797C216.908 527.797 223.947 540.366 224.636 540C225.325 539.634 219.354 526.499 219.354 526.499L216.908 527.797Z" fill="#9D796C"/>
<path fill-rule="evenodd" clip-rule="evenodd" d="M196.908 388.797C196.908 388.797 203.947 401.366 204.636 401C205.325 400.634 199.354 387.499 199.354 387.499L196.908 388.797Z" fill="#9D796C"/>
<path fill-rule="evenodd" clip-rule="evenodd" d="M221.636 504.541C221.636 504.541 224.611 511.919 225.16 511.559C225.71 511.2 223.587 503.265 223.587 503.265L221.636 504.541Z" fill="#9D796C"/>
<path fill-rule="evenodd" clip-rule="evenodd" d="M201.636 365.541C201.636 365.541 204.611 372.919 205.16 372.559C205.71 372.2 203.587 364.265 203.587 364.265L201.636 365.541Z" fill="#9D796C"/>
<rect x="0.556152" y="167.994" width="163.503" height="198.114" transform="rotate(-12 0.556152 167.994)" fill="white"/>
<rect x="31.3023" y="204.472" width="18" height="18" transform="rotate(-12 31.3023 204.472)" stroke="#CD718E" stroke-width="4"/>
<path fill-rule="evenodd" clip-rule="evenodd" d="M66.0999 195.031L147.286 177.774L151.86 199.293L70.6739 216.55L66.0999 195.031Z" fill="#EFE2E2"/>
<rect x="39.2029" y="241.641" width="18" height="18" transform="rotate(-12 39.2029 241.641)" stroke="#CD718E" stroke-width="4"/>
<path fill-rule="evenodd" clip-rule="evenodd" d="M74.0005 232.2L155.187 214.944L159.761 236.463L78.5745 253.72L74.0005 232.2Z" fill="#EFE2E2"/>
<rect x="47.1036" y="278.811" width="18" height="18" transform="rotate(-12 47.1036 278.811)" stroke="#CD718E" stroke-width="4"/>
<path fill-rule="evenodd" clip-rule="evenodd" d="M81.9011 269.37L163.087 252.113L167.661 273.633L86.4752 290.889L81.9011 269.37Z" fill="#EFE2E2"/>
<rect x="55.0042" y="315.981" width="18" height="18" transform="rotate(-12 55.0042 315.981)" stroke="#CD718E" stroke-width="4"/>
<path fill-rule="evenodd" clip-rule="evenodd" d="M89.8018 306.54L170.988 289.283L175.562 310.802L94.3758 328.059L89.8018 306.54Z" fill="#EFE2E2"/>
<path fill-rule="evenodd" clip-rule="evenodd" d="M589 107C589 107 598.411 231.267 602.89 298.448C603.136 302.143 608 300 611 309C614 318 604.722 320.41 604.977 324C612.626 431.747 589 599 589 599C589 599 653.231 643.832 669 639C682 639 693 628.622 697 635C701 641.378 694 661.565 674.702 654.918C666 661.565 655.357 667.948 632.075 663.16C608.792 658.372 590.778 654.534 582 659C573.222 663.466 563.274 668.769 547.876 661.565C532.478 654.361 537 632.948 552.986 606.221C568.972 579.494 572.501 450.186 568 364.304C563.499 278.422 537 112 537 112L589 107Z" fill="#E1B2A1"/>
<mask id="mask1_0_39" style="mask-type:alpha" maskUnits="userSpaceOnUse" x="537" y="107" width="162" height="559">
<path fill-rule="evenodd" clip-rule="evenodd" d="M589 107C589 107 598.411 231.267 602.89 298.448C603.136 302.143 608 300 611 309C614 318 604.722 320.41 604.977 324C612.626 431.747 589 599 589 599C589 599 653.231 643.832 669 639C682 639 693 628.622 697 635C701 641.378 694 661.565 674.702 654.918C666 661.565 655.357 667.948 632.075 663.16C608.792 658.372 590.778 654.534 582 659C573.222 663.466 563.274 668.769 547.876 661.565C532.478 654.361 537 632.948 552.986 606.221C568.972 579.494 572.501 450.186 568 364.304C563.499 278.422 537 112 537 112L589 107Z" fill="white"/>
</mask>
<g mask="url(#mask1_0_39)">
<path fill-rule="evenodd" clip-rule="evenodd" d="M530 90H588C588 90 620 109 595 137C570 165 530 154 530 154V90Z" fill="#CC9B8A"/>
<path fill-rule="evenodd" clip-rule="evenodd" d="M707.77 626C703.77 636 680.77 649 661.77 649C653.77 654 633.77 662 612.77 651C591.77 640 574.702 626 574.702 626C574.702 626 555.702 632 547.702 626C539.702 620 542.702 601 542.702 601C542.702 601 529.572 596.15 528.702 597C515.941 609.469 529.621 622.879 512.77 626C485.77 631 496.77 660 520.77 667C544.77 674 629.77 684 666.77 674C703.77 664 711.77 616 707.77 626Z" fill="#CC9B8A"/>
</g>
<path fill-rule="evenodd" clip-rule="evenodd" d="M599.894 460.594C599.894 460.594 606.406 471.958 605.4 472.539C604.395 473.121 596.325 462.658 596.325 462.658L599.894 460.594Z" fill="#9D796C"/>
<path fill-rule="evenodd" clip-rule="evenodd" d="M595.766 193.134C595.766 193.134 602.278 204.498 601.272 205.079C600.266 205.661 592.197 195.198 592.197 195.198L595.766 193.134Z" fill="#9D796C"/>
<path fill-rule="evenodd" clip-rule="evenodd" d="M572.576 341.29C572.576 341.29 567.631 353.418 566.553 352.983C565.476 352.549 568.753 339.748 568.753 339.748L572.576 341.29Z" fill="#9D796C"/>
<path fill-rule="evenodd" clip-rule="evenodd" d="M585.6 493.751C585.6 493.751 587.881 509.814 586.737 510.017C585.593 510.219 581.54 494.469 581.54 494.469L585.6 493.751Z" fill="#9D796C"/>
<path fill-rule="evenodd" clip-rule="evenodd" d="M560.567 244.108C560.567 244.108 552.721 258.31 551.686 257.783C550.65 257.256 556.892 242.238 556.892 242.238L560.567 244.108Z" fill="#9D796C"/>
<path fill-rule="evenodd" clip-rule="evenodd" d="M602.209 362.487C602.209 362.487 611.535 375.764 610.607 376.464C609.68 377.164 598.918 364.971 598.918 364.971L602.209 362.487Z" fill="#9D796C"/>
<path fill-rule="evenodd" clip-rule="evenodd" d="M564.99 577.46C564.99 577.46 558.154 592.175 557.084 591.721C556.015 591.268 561.193 575.851 561.193 575.851L564.99 577.46Z" fill="#9D796C"/>
<path fill-rule="evenodd" clip-rule="evenodd" d="M600 258C600 258 609.084 269.583 608 270C606.916 270.417 595.344 259.505 595.344 259.505L600 258Z" fill="#9D796C"/>
<path fill-rule="evenodd" clip-rule="evenodd" d="M575.245 437.404C575.245 437.404 568.409 452.118 567.339 451.665C566.27 451.212 571.448 435.795 571.448 435.795L575.245 437.404Z" fill="#9D796C"/>
<path fill-rule="evenodd" clip-rule="evenodd" d="M550.295 166.164C550.295 166.164 543.46 180.878 542.39 180.425C541.321 179.972 546.499 164.555 546.499 164.555L550.295 166.164Z" fill="#9D796C"/>
<path fill-rule="evenodd" clip-rule="evenodd" d="M588.18 569.963C588.18 569.963 590.069 580.341 588.916 580.483C587.763 580.625 584.088 570.468 584.088 570.468L588.18 569.963Z" fill="#9D796C"/>
<path fill-rule="evenodd" clip-rule="evenodd" d="M571.955 223.25C571.955 223.25 573.844 233.628 572.691 233.77C571.538 233.913 567.863 223.755 567.863 223.755L571.955 223.25Z" fill="#9D796C"/>
<path fill-rule="evenodd" clip-rule="evenodd" d="M598.435 429.907C598.435 429.907 600.324 440.284 599.171 440.427C598.018 440.569 594.343 430.412 594.343 430.412L598.435 429.907Z" fill="#9D796C"/>
<path fill-rule="evenodd" clip-rule="evenodd" d="M581.021 169.88C581.021 169.88 586.735 174.968 586.14 175.564C585.544 176.16 578.908 171.996 578.908 171.996L581.021 169.88Z" fill="#9D796C"/>
<path fill-rule="evenodd" clip-rule="evenodd" d="M590.77 548.741C590.77 548.741 596.941 554.845 596.231 555.485C595.521 556.125 588.25 551.013 588.25 551.013L590.77 548.741Z" fill="#9D796C"/>
<path fill-rule="evenodd" clip-rule="evenodd" d="M569.253 277.787C569.253 277.787 568.997 286.463 568.045 286.38C567.093 286.298 565.873 277.493 565.873 277.493L569.253 277.787Z" fill="#9D796C"/>
<path fill-rule="evenodd" clip-rule="evenodd" d="M606.157 408.884C606.157 408.884 612.329 414.987 611.619 415.628C610.909 416.268 603.637 411.155 603.637 411.155L606.157 408.884Z" fill="#9D796C"/>
<path fill-rule="evenodd" clip-rule="evenodd" d="M584.464 323.908C584.464 323.908 590.635 330.012 589.925 330.652C589.215 331.292 581.944 326.18 581.944 326.18L584.464 323.908Z" fill="#9D796C"/>
<path fill-rule="evenodd" clip-rule="evenodd" d="M594.508 283.955C594.508 283.955 595.319 293.991 594.453 294.395C593.587 294.8 591.346 284.034 591.346 284.034L594.508 283.955Z" fill="#9D796C"/>
<path fill-rule="evenodd" clip-rule="evenodd" d="M589.755 235.044C589.755 235.044 595.926 241.148 595.216 241.788C594.506 242.429 587.235 237.316 587.235 237.316L589.755 235.044Z" fill="#9D796C"/>
<path fill-rule="evenodd" clip-rule="evenodd" d="M591.965 150.623C591.965 150.623 601.049 158.314 599.796 159.33C598.543 160.347 587.518 154.231 587.518 154.231L591.965 150.623Z" fill="#9D796C"/>
<path fill-rule="evenodd" clip-rule="evenodd" d="M597.687 524.759C597.687 524.759 603.474 533.99 602.827 534.427C602.181 534.863 595.392 526.309 595.392 526.309L597.687 524.759Z" fill="#9D796C"/>
<path fill-rule="evenodd" clip-rule="evenodd" d="M607.329 315.717C607.329 315.717 613.115 324.948 612.469 325.384C611.823 325.821 605.034 317.266 605.034 317.266L607.329 315.717Z" fill="#9D796C"/>
<path fill-rule="evenodd" clip-rule="evenodd" d="M579.19 471.24C579.19 471.24 575.123 481.348 574.39 481.081C573.657 480.815 576.587 470.295 576.587 470.295L579.19 471.24Z" fill="#9D796C"/>
<path fill-rule="evenodd" clip-rule="evenodd" d="M554.241 200C554.241 200 550.174 210.108 549.441 209.841C548.707 209.575 551.638 199.055 551.638 199.055L554.241 200Z" fill="#9D796C"/>
<path fill-rule="evenodd" clip-rule="evenodd" d="M580.63 593.976C580.63 593.976 583.759 600.383 583.113 600.82C582.466 601.256 578.774 596.111 578.774 596.111L580.63 593.976Z" fill="#9D796C"/>
<path fill-rule="evenodd" clip-rule="evenodd" d="M585.51 447.19C585.51 447.19 588.64 453.597 587.993 454.033C587.347 454.47 583.654 449.325 583.654 449.325L585.51 447.19Z" fill="#9D796C"/>
<path fill-rule="evenodd" clip-rule="evenodd" d="M560.561 175.95C560.561 175.95 563.691 182.357 563.044 182.793C562.398 183.23 558.705 178.085 558.705 178.085L560.561 175.95Z" fill="#9D796C"/>
<path fill-rule="evenodd" clip-rule="evenodd" d="M566.513 559.094C566.513 559.094 560.278 562.554 559.809 561.932C559.339 561.309 564.284 557.352 564.284 557.352L566.513 559.094Z" fill="#9D796C"/>
<path fill-rule="evenodd" clip-rule="evenodd" d="M569.506 315.157C569.506 315.157 563.272 318.618 562.802 317.995C562.332 317.372 567.277 313.416 567.277 313.416L569.506 315.157Z" fill="#9D796C"/>
<path fill-rule="evenodd" clip-rule="evenodd" d="M572.768 415.037C572.768 415.037 566.534 418.498 566.064 417.875C565.594 417.253 570.539 413.296 570.539 413.296L572.768 415.037Z" fill="#9D796C"/>
<path fill-rule="evenodd" clip-rule="evenodd" d="M570.336 148.803C570.336 148.803 566.561 154.852 565.848 154.535C565.135 154.219 567.542 148.36 567.542 148.36L570.336 148.803Z" fill="#9D796C"/>
<path fill-rule="evenodd" clip-rule="evenodd" d="M575.565 527.774C575.565 527.774 569.421 540.803 568.708 540.486C567.995 540.17 573.035 526.65 573.035 526.65L575.565 527.774Z" fill="#9D796C"/>
<path fill-rule="evenodd" clip-rule="evenodd" d="M585.821 387.718C585.821 387.718 579.676 400.747 578.963 400.43C578.25 400.113 583.291 386.593 583.291 386.593L585.821 387.718Z" fill="#9D796C"/>
<path fill-rule="evenodd" clip-rule="evenodd" d="M569.227 504.905C569.227 504.905 566.774 512.471 566.201 512.151C565.628 511.831 567.192 503.768 567.192 503.768L569.227 504.905Z" fill="#9D796C"/>
<path fill-rule="evenodd" clip-rule="evenodd" d="M570.941 369.777C570.941 369.777 568.489 377.344 567.916 377.024C567.342 376.704 568.907 368.641 568.907 368.641L570.941 369.777Z" fill="#9D796C"/>
<path fill-rule="evenodd" clip-rule="evenodd" d="M104.629 -37.4697C85.7529 -17.8003 78.8159 120.996 76.1302 129.48C73.4446 137.964 65.0444 146.39 74.2844 177.162C83.5245 207.934 102.148 229.945 104.629 226.53C107.11 223.115 81.3825 188.083 85.3134 187.46C89.2442 186.837 110.481 232.689 117.983 235.53C125.484 238.372 90.587 182.595 94.5179 181.973C98.4487 181.35 122.087 236.464 127.983 235.53C133.879 234.596 99.3246 174.16 103.051 178.607C106.777 183.053 128.793 225.654 135.983 226.53C143.173 227.406 104.91 171.261 106.661 156.88C108.413 142.5 117.983 143.53 117.983 143.53C117.983 143.53 117.983 143.53 124.854 142.53C120.983 133.53 105.874 132.828 104.629 124.966C103.384 117.105 117.177 -9.13908 147.983 -31.4697C147.983 -31.4697 123.505 -57.1391 104.629 -37.4697Z" fill="#E1B2A1"/>
<path fill-rule="evenodd" clip-rule="evenodd" d="M195 0L182 116C182 116 218.396 127 249.466 130C280.536 133 319.595 130 319.595 130C319.595 130 340.013 70.5 397.714 72.5C455.415 74.5 472.282 136 472.282 136C472.282 136 503.352 145 535.309 145C567.267 145 601 130 601 130L588 0H195Z" fill="white"/>
<mask id="mask2_0_39" style="mask-type:alpha" maskUnits="userSpaceOnUse" x="182" y="0" width="419" height="145">
<path fill-rule="evenodd" clip-rule="evenodd" d="M195 0L182 116C182 116 218.396 127 249.466 130C280.536 133 319.595 130 319.595 130C319.595 130 340.013 70.5 397.714 72.5C455.415 74.5 472.282 136 472.282 136C472.282 136 503.352 145 535.309 145C567.267 145 601 130 601 130L588 0H195Z" fill="white"/>
</mask>
<g mask="url(#mask2_0_39)">
<path fill-rule="evenodd" clip-rule="evenodd" d="M194.541 54C189.541 54 176.541 23 184.541 20C192.541 17 194.541 26 194.541 26C194.541 26 202.541 14 208.541 20C214.541 26 199.541 54 194.541 54Z" fill="#FFB7CD"/>
<path fill-rule="evenodd" clip-rule="evenodd" d="M238.541 99C233.541 99 220.541 68 228.541 65C236.541 62 238.541 71 238.541 71C238.541 71 246.541 59 252.541 65C258.541 71 243.541 99 238.541 99Z" fill="#FFB7CD"/>
<path fill-rule="evenodd" clip-rule="evenodd" d="M266.541 36C261.541 36 248.541 5 256.541 2C264.541 -1 266.541 8 266.541 8C266.541 8 274.541 -4 280.541 2C286.541 8 271.541 36 266.541 36Z" fill="#FFB7CD"/>
<path fill-rule="evenodd" clip-rule="evenodd" d="M338.541 63C333.541 63 320.541 32 328.541 29C336.541 26 338.541 35 338.541 35C338.541 35 346.541 23 352.541 29C358.541 35 343.541 63 338.541 63Z" fill="#FFB7CD"/>
<path fill-rule="evenodd" clip-rule="evenodd" d="M486.541 86C481.541 86 468.541 55 476.541 52C484.541 49 486.541 58 486.541 58C486.541 58 494.541 46 500.541 52C506.541 58 491.541 86 486.541 86Z" fill="#FFB7CD"/>
<path fill-rule="evenodd" clip-rule="evenodd" d="M531.541 18C526.541 18 513.541 -13 521.541 -16C529.541 -19 531.541 -10 531.541 -10C531.541 -10 539.541 -22 545.541 -16C551.541 -10 536.541 18 531.541 18Z" fill="#FFB7CD"/>
<path fill-rule="evenodd" clip-rule="evenodd" d="M609.541 62C604.541 62 591.541 31 599.541 28C607.541 25 609.541 34 609.541 34C609.541 34 617.541 22 623.541 28C629.541 34 614.541 62 609.541 62Z" fill="#FFB7CD"/>
<path fill-rule="evenodd" clip-rule="evenodd" d="M418.081 27.1964C414.859 27.1964 406.483 7.22172 411.637 5.28869C416.792 3.35566 418.081 9.15475 418.081 9.15475C418.081 9.15475 423.235 1.42263 427.102 5.28869C430.968 9.15475 421.302 27.1964 418.081 27.1964Z" fill="#FFB7CD"/>
<path fill-rule="evenodd" clip-rule="evenodd" d="M487.081 144.196C483.859 144.196 475.483 124.222 480.637 122.289C485.792 120.356 487.081 126.155 487.081 126.155C487.081 126.155 492.235 118.423 496.102 122.289C499.968 126.155 490.302 144.196 487.081 144.196Z" fill="#FFB7CD"/>
<path fill-rule="evenodd" clip-rule="evenodd" d="M305.081 132.196C301.859 132.196 293.483 112.222 298.637 110.289C303.792 108.356 305.081 114.155 305.081 114.155C305.081 114.155 310.235 106.423 314.102 110.289C317.968 114.155 308.302 132.196 305.081 132.196Z" fill="#FFB7CD"/>
<path fill-rule="evenodd" clip-rule="evenodd" d="M555.081 120.196C551.859 120.196 543.483 100.222 548.637 98.2887C553.792 96.3557 555.081 102.155 555.081 102.155C555.081 102.155 560.235 94.4226 564.102 98.2887C567.968 102.155 558.302 120.196 555.081 120.196Z" fill="#FFB7CD"/>
<ellipse cx="400.5" cy="138.721" rx="100.5" ry="97.7214" fill="black" fill-opacity="0.1"/>
</g>
<path fill-rule="evenodd" clip-rule="evenodd" d="M762.372 94.4085C761.34 96.9621 758.447 98.201 755.909 97.1758C753.372 96.1505 752.151 93.2494 753.183 90.6959C753.24 90.5542 753.303 90.4165 753.371 90.2831L638.065 43.6963C635.761 42.7653 633.138 43.8786 632.207 46.1829L610.105 100.887C609.174 103.191 610.288 105.814 612.592 106.745L727.898 153.332C727.942 153.188 727.992 153.045 728.049 152.904C729.081 150.35 731.974 149.111 734.512 150.136C737.049 151.162 738.27 154.063 737.238 156.616C737.181 156.758 737.118 156.896 737.05 157.029L772.995 171.552C775.299 172.483 777.922 171.37 778.853 169.065L800.955 114.361C801.886 112.057 800.772 109.434 798.468 108.503L762.523 93.9806C762.48 94.1241 762.429 94.2668 762.372 94.4085Z" fill="#663244"/>
<path fill-rule="evenodd" clip-rule="evenodd" d="M765.315 110.092C764.022 112.523 761.015 113.453 758.598 112.168C756.182 110.883 755.271 107.871 756.564 105.439C756.636 105.304 756.713 105.174 756.795 105.048L646.99 46.6638C644.795 45.497 642.071 46.33 640.904 48.5244L613.205 100.618C612.038 102.813 612.871 105.537 615.066 106.704L724.871 165.089C724.929 164.95 724.994 164.814 725.066 164.679C726.359 162.247 729.366 161.317 731.782 162.602C734.199 163.887 735.109 166.9 733.817 169.332C733.745 169.467 733.668 169.597 733.586 169.722L767.816 187.923C770.01 189.09 772.735 188.257 773.902 186.062L801.6 133.968C802.767 131.774 801.934 129.049 799.74 127.882L765.51 109.682C765.452 109.82 765.387 109.957 765.315 110.092Z" fill="#7F4156"/>
<path fill-rule="evenodd" clip-rule="evenodd" d="M760.386 142.909C760.334 142.882 760.249 142.848 760.147 142.81C759.784 141.395 759.317 139.84 759.098 138.75C759.002 138.267 758.76 137.951 758.312 137.72L758.259 137.692C758.072 137.597 757.907 137.561 757.829 137.754L756.697 142.045C756.014 141.999 755.463 142.068 755.302 142.361C755.289 142.384 755.279 142.408 755.272 142.433C755.255 142.452 755.24 142.474 755.228 142.496C755.067 142.79 755.316 143.272 755.738 143.794L752.7 147.103C752.58 147.274 752.702 147.388 752.887 147.483C752.887 147.483 752.941 147.51 752.941 147.511C753.389 147.742 753.795 147.759 754.261 147.566C755.317 147.132 756.909 146.637 758.322 146.137C758.411 146.198 758.488 146.247 758.54 146.274L764.353 149.268L757.083 157.539C756.769 158.001 757.029 158.27 757.439 158.481L757.557 158.542C757.822 158.679 758.166 158.619 758.437 158.389L769.908 152.129L775.458 154.989C776.029 155.282 778.509 155.627 778.997 154.739C779.009 154.716 779.02 154.693 779.03 154.67C779.044 154.649 779.058 154.627 779.07 154.605C779.558 153.716 777.874 151.917 777.305 151.624L771.754 148.764L770.692 136.048C770.737 135.702 770.596 135.394 770.33 135.256L770.213 135.196C769.803 134.985 769.427 134.925 769.207 135.437L766.199 145.903L760.386 142.909Z" fill="white"/>
<path fill-rule="evenodd" clip-rule="evenodd" d="M613.942 -97.5486C638.812 -86.3826 697.238 39.7084 702.906 46.5688C708.574 53.4292 719.519 58.0947 722.479 90.0875C725.44 122.08 716.418 149.465 712.838 147.228C709.258 144.991 719.989 102.872 716.111 103.767C712.233 104.662 711.838 148 701 154C695.2 157.211 701.992 143.348 705 128C707.613 114.667 707.324 101.711 705.521 102.127C701.643 103.022 704.828 146 690 153C682.377 156.599 690.601 147.057 694 131C697.212 115.823 694.458 100.085 693 103C690 109 691 145.228 679 150C673.083 152.353 679.461 140.746 682 125C684.61 108.809 683.451 90.3197 682 82C679.138 65.5893 672 57 672 57C672 57 669 56 661 53C668 43 672.79 49.7557 671 42C669.209 34.2443 612.92 -66.5803 575.992 -75.7448C575.992 -75.7448 589.072 -108.715 613.942 -97.5486Z" fill="#E1B2A1"/>
</svg>
