<svg xmlns="http://www.w3.org/2000/svg" width="53" height="53" fill="none" viewBox="0 0 53 53">
  <rect width="53" height="53" fill="#EB722E" rx="26.5"/>
  <path fill="#fff" fill-rule="evenodd" d="M35 18.502C35 23.188 31.188 27 26.5 27c-4.687 0-8.5-3.812-8.5-8.498C18 13.814 21.813 10 26.5 10c4.688 0 8.5 3.813 8.5 8.502Zm-4.98 0c0-1.94-1.58-3.52-3.52-3.52a3.523 3.523 0 0 0-3.518 3.52A3.523 3.523 0 0 0 26.5 22.02c1.94 0 3.52-1.579 3.52-3.518Z" clip-rule="evenodd"/>
  <path fill="#fff" fill-rule="evenodd" d="M29.925 33.368a16.194 16.194 0 0 0 4.915-1.959c1.16-.702 1.508-2.176.779-3.291a2.478 2.478 0 0 0-1.549-1.058 2.56 2.56 0 0 0-1.871.307c-3.468 2.099-7.932 2.097-11.398 0a2.56 2.56 0 0 0-1.871-.307 2.477 2.477 0 0 0-1.549 1.058c-.729 1.115-.381 2.589.778 3.291a16.21 16.21 0 0 0 4.915 1.96l-4.733 4.555a2.327 2.327 0 0 0-.642 2.306 2.44 2.44 0 0 0 1.755 1.689 2.548 2.548 0 0 0 2.395-.619l4.65-4.476 4.652 4.477a2.53 2.53 0 0 0 1.753.699c.657 0 1.288-.252 1.752-.7a2.339 2.339 0 0 0 .728-1.687c0-.633-.262-1.24-.728-1.688l-4.731-4.557Z" clip-rule="evenodd"/>
</svg>
