<svg width="269" height="239" viewBox="0 0 269 239" fill="none" xmlns="http://www.w3.org/2000/svg">
<path d="M74.9492 16.75C74.9492 23.25 75.0492 29.8 75.0492 36.3C75.0492 37.25 75.0492 38.2 75.1492 39.15C75.2492 39.9 75.1492 40.6 76.0992 40.6C79.8492 40.6 90.5492 41.35 90.5492 35.1C90.5492 28.75 82.8492 27.55 82.9992 27.35C84.3992 25.45 87.1492 23.4 87.0992 18.35C87.0992 14.1 85.7992 8.85 81.9492 6.45C80.6492 5.65 78.3492 4.85 76.7992 4.85C75.3492 4.85 74.8992 4.95 74.8992 6.35C74.8992 7.1 74.9492 8.35 74.9492 9.1C75.0492 11.6 74.9492 14.05 74.9492 16.55V16.75ZM86.5992 34.3C86.5992 36.35 83.8492 36.95 79.8992 36.95C79.0992 36.95 78.8492 36.5 78.8492 35.75C78.8492 34.55 78.9992 33.35 78.9992 32.15C78.9992 31.5 78.9992 31.05 79.7492 31.05C81.4492 31.05 86.4492 31.4 86.5492 34.3H86.5992ZM81.0992 11.3C83.5492 14.5 83.8492 24.05 79.1492 25.65C79.0492 25.65 78.9492 25.6 78.8992 25.6C78.7992 25.5 78.7992 25.35 78.7992 25.25C78.7992 20.5 78.4492 14.8 78.4492 10.05C78.4492 8.3 80.7992 10.95 81.0992 11.3ZM105.245 40.1C105.795 39.15 106.045 38.05 106.045 36.95C106.045 34.2 104.145 30.75 101.845 29.2C100.845 28.55 98.9945 28.35 98.2945 27.65C97.5945 27.05 97.5445 26.15 97.5445 25.3C97.5445 20.3 97.9445 15.25 98.2445 10.25C98.3945 8 98.7945 5.85 98.7945 3.6C98.7945 2.25 98.6445 1.45 97.0945 1.45C94.5445 1.45 94.3945 2.25 94.3945 4.55C94.3945 6.6 94.5445 8.65 94.5445 10.7C94.5445 15.65 94.4945 20.55 94.3445 25.5C94.1945 30.05 93.7445 34.55 93.7445 39.1C93.7445 40.7 93.7945 42.35 93.9945 43.95C97.9445 43.75 102.945 44.1 105.245 40.1ZM112.745 37.9C112.495 35.3 112.595 32.65 112.545 30.05C112.445 24.15 112.245 18.25 112.245 12.35C112.245 9.85 112.345 7.3 112.345 4.8C112.345 4.55 112.395 4 112.245 3.8C111.995 3.35 109.245 3.35 108.645 3.35C108.795 13.65 108.895 24 108.895 34.3C108.895 36.05 108.695 37.8 108.695 39.5C108.695 40.25 108.795 40.95 108.845 41.65C108.995 42.65 108.845 42.9 109.995 42.9C110.645 42.9 112.795 42.85 113.095 42.25C112.995 41.95 113.145 41.3 113.145 41C113.145 39.95 112.895 38.95 112.745 37.9ZM97.8945 31.4C97.9945 31.4 98.0945 31.35 98.1945 31.35C99.9945 31.35 101.945 33.75 101.945 35.5C101.945 37.4 100.095 39.7 98.1445 39.7C96.9945 39.7 97.3945 37.35 97.3945 36.65C97.3945 35.45 97.0945 34.3 97.0945 33.15C97.0945 32.5 97.1945 31.6 97.8945 31.4ZM122.971 41.8C123.371 41.9 123.821 41.95 124.271 41.95C131.321 41.95 132.121 34.85 132.121 29.35C132.121 26.95 131.971 24.4 131.421 22C129.921 15.15 122.221 14.65 122.221 11.25C122.221 8.7 127.621 8.2 129.421 8.2C130.471 8.2 131.521 8.4 132.521 8.4C132.621 8.4 132.721 8.15 132.721 8.1C133.071 7.1 133.371 4.95 133.371 3.95C133.371 3.8 133.371 3.6 133.271 3.5L132.421 3.45C128.271 3.45 122.071 4.1 119.071 7.25C118.121 8.25 117.321 9.5 117.321 10.95C117.321 18.75 126.721 18.4 128.171 22.05C127.671 21.95 127.121 21.9 126.621 21.9C120.671 21.9 118.321 23.9 118.321 30C118.321 33.55 118.771 40.65 122.971 41.8ZM124.971 40.75L125.021 40.7V40.75H124.971ZM123.271 26.7C124.471 25.75 126.021 25.3 127.471 25.15C127.721 26.45 127.871 27.75 127.871 29.05C127.871 31.2 127.221 36.2 126.121 38C125.721 38.35 125.271 38.6 124.771 38.8C122.471 38.5 122.721 34.3 122.721 32.55C122.721 30.6 122.921 28.6 123.271 26.7ZM149.138 39.25C157.288 39.25 160.288 31.2 160.288 24.25C160.288 17.45 158.438 7.15 149.688 7.15C141.138 7.15 138.238 15.2 138.238 22.5C138.238 29.2 140.738 39.25 149.138 39.25ZM149.688 10.85C154.938 10.85 156.538 18.75 156.538 22.8C156.538 27.2 154.838 35.6 149.138 35.6C144.738 35.6 142.438 28.25 142.138 24.7C141.988 23.7 141.988 22.6 141.988 21.55C141.988 16.3 143.388 10.85 149.688 10.85ZM164.109 3.65C164.009 4.85 163.959 6 163.959 7.2C163.959 11.3 164.509 15.35 164.709 19.4C165.059 25.85 165.059 32.3 165.059 38.75C165.059 41.1 165.109 41.75 167.709 41.75C169.309 41.75 169.409 41.25 169.409 39.7C169.409 37.85 168.959 36.1 168.809 34.25C168.509 30.25 168.109 26.25 168.109 22.2C168.109 21.3 167.909 20.35 167.909 19.4C167.909 18.7 168.009 17.95 168.609 17.5C169.309 16.95 171.109 16.8 172.159 16.15C174.259 14.85 176.259 12.15 176.259 9.6C176.259 8.6 175.959 7.65 175.409 6.85C173.059 3.4 167.809 3.8 164.109 3.65ZM171.959 12C171.509 13 169.559 14.35 168.459 14.35C167.559 14.35 167.359 13.55 167.359 12.8C167.359 11.95 167.559 11.15 167.609 10.35C167.659 9.7 167.559 9.1 167.559 8.45C167.559 7.85 167.609 7.25 168.359 7.25C170.109 7.25 172.209 9 172.209 10.85C172.209 11.2 172.109 11.6 171.959 12ZM191.524 40.1C192.074 39.15 192.324 38.05 192.324 36.95C192.324 34.2 190.424 30.75 188.124 29.2C187.124 28.55 185.274 28.35 184.574 27.65C183.874 27.05 183.824 26.15 183.824 25.3C183.824 20.3 184.224 15.25 184.524 10.25C184.674 8 185.074 5.85 185.074 3.6C185.074 2.25 184.924 1.45 183.374 1.45C180.824 1.45 180.674 2.25 180.674 4.55C180.674 6.6 180.824 8.65 180.824 10.7C180.824 15.65 180.774 20.55 180.624 25.5C180.474 30.05 180.024 34.55 180.024 39.1C180.024 40.7 180.074 42.35 180.274 43.95C184.224 43.75 189.224 44.1 191.524 40.1ZM199.024 37.9C198.774 35.3 198.874 32.65 198.824 30.05C198.724 24.15 198.524 18.25 198.524 12.35C198.524 9.85 198.624 7.3 198.624 4.8C198.624 4.55 198.674 4 198.524 3.8C198.274 3.35 195.524 3.35 194.924 3.35C195.074 13.65 195.174 24 195.174 34.3C195.174 36.05 194.974 37.8 194.974 39.5C194.974 40.25 195.074 40.95 195.124 41.65C195.274 42.65 195.124 42.9 196.274 42.9C196.924 42.9 199.074 42.85 199.374 42.25C199.274 41.95 199.424 41.3 199.424 41C199.424 39.95 199.174 38.95 199.024 37.9ZM184.174 31.4C184.274 31.4 184.374 31.35 184.474 31.35C186.274 31.35 188.224 33.75 188.224 35.5C188.224 37.4 186.374 39.7 184.424 39.7C183.274 39.7 183.674 37.35 183.674 36.65C183.674 35.45 183.374 34.3 183.374 33.15C183.374 32.5 183.474 31.6 184.174 31.4Z" fill="#7F4156"/>
<path d="M61.691 33.5H209" stroke="#7F4156" stroke-width="4" stroke-linecap="square"/>
<path d="M39.9207 65.15C39.6207 63.1 38.3207 63.7 36.7707 63.7C33.2207 63.7 29.6707 63.3 26.1207 63.3C24.8707 63.3 23.9207 64.15 23.9207 65.4C23.9207 76.1 24.1207 86.8 24.1207 97.5C24.1207 99.25 23.9207 100.95 23.9207 102.7C23.9207 103.45 23.9707 104.15 24.0707 104.9C24.2207 105.95 23.8707 105.9 25.0207 106.15H25.1707C25.7207 106.15 28.1207 106.05 28.3207 105.45C28.2207 105.25 28.3707 104.45 28.3707 104.2C28.3707 103.15 28.1207 102.15 27.9707 101.1C27.6707 98.25 27.8207 95.15 27.7707 92.25C27.6707 85.9 27.6707 79.5 27.4707 73.1C27.4707 72.05 27.4707 71 27.4707 69.95V68.1C30.0707 68.15 32.6207 67.4 35.1707 67.4C36.0707 67.4 36.0707 67.8 36.0707 68.6C36.0707 69.9 36.0207 71.2 36.0207 72.5C36.0207 79.75 36.2707 87 36.3207 94.25C36.3207 96.25 36.4707 98.2 36.4707 100.15C36.4707 101.25 36.2707 102.3 36.2707 103.35C36.2707 104.7 36.6207 104.55 37.6207 104.8C38.0207 104.9 38.4207 105.05 38.8207 105.05C40.2707 105.05 40.0707 102.9 40.0707 101.95C40.0707 99.85 39.8707 97.8 39.8707 95.75C39.8707 92.95 40.1707 90.2 40.1707 87.45C40.1707 84.55 39.7707 81.7 39.7707 78.8C39.7707 75.55 40.1707 72.25 40.1707 68.95C40.1707 67.65 40.1207 66.4 39.9207 65.15ZM59.3598 69.1C59.3098 68.25 59.4098 67.35 59.4098 66.45C59.4098 64.25 58.6598 64.35 56.7098 64.35C55.8598 64.35 54.6598 64.45 54.6598 65.6C54.6598 66.9 55.0598 68.2 55.0598 69.5C55.0598 71.2 54.5598 75.25 52.2098 75.25C50.6098 75.25 49.6098 72.8 49.4098 71.5C49.1098 69.8 49.3598 68.15 49.3598 66.45C49.3598 65.35 49.2098 63.7 47.7598 63.7C46.2598 63.7 45.1598 64.4 45.1598 66C45.1598 70.25 46.2098 78.45 51.8598 78.45C53.9098 78.45 55.2098 76.6 55.9098 74.85C56.2098 75.4 56.2098 76.2 56.2098 76.8C56.2098 80.3 55.9598 83.75 55.8598 87.25C55.7598 89.9 55.6098 92.6 55.3598 95.3C55.1598 97.25 55.1098 100.2 53.6098 101.7C53.2098 102.05 52.7098 102.45 52.1098 102.45C49.9598 102.45 49.4598 97.05 49.4598 95.5C49.4598 95 49.8098 94.65 49.8098 94.15C49.8098 93.9 49.5598 93.75 49.3098 93.75C46.3098 93.75 46.2598 96.4 46.2598 98.65C46.2598 102.75 48.5598 105.7 52.8098 105.7C59.1598 105.7 59.5598 95.25 59.9098 90.75C60.1098 87.85 60.2598 85 60.2598 82.1C60.2598 77.75 59.6598 73.45 59.3598 69.1ZM67.248 66.4C69.148 66.75 69.148 66.7 69.148 68.65C69.148 79.95 69.898 91.3 69.898 102.65C69.898 103.4 69.748 104.1 69.748 104.85C69.748 106.35 70.048 106.1 71.148 106.5C71.698 106.7 72.248 107 72.798 107C73.398 107 73.398 106.4 73.398 105.95C73.398 105.55 73.398 105.2 73.348 104.8C72.998 98.8 73.048 92.75 73.048 86.7C72.998 80.9 72.998 75.05 72.748 69.25C72.698 68.7 72.648 68.15 72.648 67.6C72.648 65.25 76.498 67.05 76.498 65.55C76.498 64.85 76.398 64.15 76.398 63.45C76.398 62.4 75.198 62.45 74.398 62.45C73.298 62.45 72.198 62.65 71.098 62.65C69.648 62.65 68.198 62.45 66.698 62.45C64.248 62.45 64.348 63 64.348 65.25C64.348 65.45 64.348 65.65 64.398 65.8C64.748 66.2 66.648 66.35 67.248 66.4ZM91.6379 101.1C95.4379 100 97.4879 95.1 97.4879 91.4C97.4879 90.85 97.4879 90.45 96.7879 90.45C95.8879 90.45 95.0379 90.3 94.1379 90.3C93.6879 90.3 93.2879 90.3 92.8879 90.55C92.0879 91.05 92.9879 97.35 89.7879 97.35C86.5379 97.35 86.4379 90.05 86.2379 87.8C86.1879 86.9 85.9879 86 85.9879 85.1C85.9879 83.3 87.5379 83 88.9879 83C90.6879 83 92.3879 83.15 94.0879 83.15C95.9879 83.15 97.1879 82.85 97.1879 80.65C97.1879 76.15 94.7379 68 89.1879 68C81.9879 68 81.5379 79.9 81.5379 84.95C81.5379 89.85 83.1379 101.4 89.7379 101.4C90.3879 101.4 91.0379 101.3 91.6379 101.1ZM86.5379 78.05C86.5379 77.65 86.5379 77.25 86.5379 76.8C86.5379 75.2 86.5879 71.9 88.8379 71.9C91.1379 71.9 92.8879 76.05 92.8879 77.95C92.8879 79.15 92.2379 79 91.3379 79.15C90.1879 79.35 88.9879 79.7 87.7879 79.7C87.4379 79.7 86.4379 79.6 86.4379 79.1C86.4379 78.75 86.5379 78.4 86.5379 78.05ZM121.64 103.3C122.34 103.25 122.79 102.8 122.89 102.15C123.19 100.45 123.04 98.4 123.04 96.7C123.04 88.9 122.69 81.1 122.69 73.3C122.69 71.85 122.84 70.4 122.84 68.9C122.84 68.25 122.79 67.6 122.69 66.95C122.54 66.1 122.79 65.9 121.64 65.9C121.19 65.9 118.99 65.95 118.79 66.5C118.89 66.65 118.79 67.35 118.79 67.55C118.79 68.45 118.99 69.35 119.09 70.2C119.39 72.7 119.29 75.35 119.29 77.85C119.39 83.35 119.44 88.9 119.59 94.4C119.59 95.5 119.59 96.65 119.59 97.75V99.65C118.04 99.65 116.84 100.3 115.29 100.3C115.09 92.55 114.64 84.8 114.64 77.05C114.64 75.9 114.84 74.7 114.84 73.5C114.84 72.15 114.64 71.75 113.14 71.75C112.19 71.75 110.94 71.85 110.94 73.1C110.94 73.75 111.19 74.4 111.24 75.05C111.34 76.05 111.24 77.05 111.24 78.1C111.24 78.55 111.29 79 111.29 79.45C111.64 83.45 111.74 87.45 111.89 91.4C111.99 94.35 111.89 97.3 112.04 100.2C111.14 100.15 106.54 99.85 106.49 98.45C106.49 97.5 106.54 96.55 106.54 95.55C106.54 89.1 106.34 82.6 106.29 76.15C106.29 74.45 106.14 72.75 106.14 71.05C106.14 70.1 106.34 69.2 106.34 68.25C106.34 67.1 105.94 67.25 105.09 67.05C104.74 66.95 104.34 66.85 103.99 66.85C103.04 66.85 102.94 67.6 102.89 68.4C102.69 70.7 102.74 73.05 102.69 75.35C102.54 80 102.49 84.7 102.49 89.35C102.49 92.65 102.29 99.15 102.94 102.25C103.14 103.1 103.34 103.55 104.29 103.55C110.04 103.55 115.94 103.65 121.64 103.3ZM137.341 101.1C141.141 100 143.191 95.1 143.191 91.4C143.191 90.85 143.191 90.45 142.491 90.45C141.591 90.45 140.741 90.3 139.841 90.3C139.391 90.3 138.991 90.3 138.591 90.55C137.791 91.05 138.691 97.35 135.491 97.35C132.241 97.35 132.141 90.05 131.941 87.8C131.891 86.9 131.691 86 131.691 85.1C131.691 83.3 133.241 83 134.691 83C136.391 83 138.091 83.15 139.791 83.15C141.691 83.15 142.891 82.85 142.891 80.65C142.891 76.15 140.441 68 134.891 68C127.691 68 127.241 79.9 127.241 84.95C127.241 89.85 128.841 101.4 135.441 101.4C136.091 101.4 136.741 101.3 137.341 101.1ZM132.241 78.05C132.241 77.65 132.241 77.25 132.241 76.8C132.241 75.2 132.291 71.9 134.541 71.9C136.841 71.9 138.591 76.05 138.591 77.95C138.591 79.15 137.941 79 137.041 79.15C135.891 79.35 134.691 79.7 133.491 79.7C133.141 79.7 132.141 79.6 132.141 79.1C132.141 78.75 132.241 78.4 132.241 78.05ZM158.793 62.65C157.893 62.15 156.843 61.85 155.793 61.85C149.893 61.85 148.493 67.55 148.143 72.25C147.843 75.9 147.793 79.6 147.793 83.3C147.793 90.2 147.493 100.95 152.843 106.1C153.843 107.05 155.143 107.6 156.543 107.6C158.243 107.6 159.793 106.75 160.893 105.45C163.243 102.55 163.093 98.4 163.343 94.9C162.543 95.05 161.693 95.15 160.843 95.25C159.593 95.35 159.593 95 159.293 96.35C158.993 97.6 159.193 98.85 158.893 100.1C158.593 101.3 157.593 103.2 156.143 103.2C151.243 103.2 151.643 85.9 151.643 82.55C151.643 80.9 151.543 79.2 151.543 77.5C151.543 74.85 151.543 66.3 155.493 66.3C160.093 66.3 159.243 76 159.743 78.95C159.943 80.05 159.643 79.8 160.693 80.1C161.093 80.2 161.543 80.2 161.943 80.2C162.493 80.2 163.043 80.15 163.543 80.2C163.593 79.65 163.593 79.1 163.593 78.55C163.593 74.2 162.893 65.1 158.793 62.65ZM170.52 66.4C172.42 66.75 172.42 66.7 172.42 68.65C172.42 79.95 173.17 91.3 173.17 102.65C173.17 103.4 173.02 104.1 173.02 104.85C173.02 106.35 173.32 106.1 174.42 106.5C174.97 106.7 175.52 107 176.07 107C176.67 107 176.67 106.4 176.67 105.95C176.67 105.55 176.67 105.2 176.62 104.8C176.27 98.8 176.32 92.75 176.32 86.7C176.27 80.9 176.27 75.05 176.02 69.25C175.97 68.7 175.92 68.15 175.92 67.6C175.92 65.25 179.77 67.05 179.77 65.55C179.77 64.85 179.67 64.15 179.67 63.45C179.67 62.4 178.47 62.45 177.67 62.45C176.57 62.45 175.47 62.65 174.37 62.65C172.92 62.65 171.47 62.45 169.97 62.45C167.52 62.45 167.62 63 167.62 65.25C167.62 65.45 167.62 65.65 167.67 65.8C168.02 66.2 169.92 66.35 170.52 66.4ZM185.109 78.75C185.109 85.25 185.209 91.8 185.209 98.3C185.209 99.25 185.209 100.2 185.309 101.15C185.409 101.9 185.309 102.6 186.259 102.6C190.009 102.6 200.709 103.35 200.709 97.1C200.709 90.75 193.009 89.55 193.159 89.35C194.559 87.45 197.309 85.4 197.259 80.35C197.259 76.1 195.959 70.85 192.109 68.45C190.809 67.65 188.509 66.85 186.959 66.85C185.509 66.85 185.059 66.95 185.059 68.35C185.059 69.1 185.109 70.35 185.109 71.1C185.209 73.6 185.109 76.05 185.109 78.55V78.75ZM196.759 96.3C196.759 98.35 194.009 98.95 190.059 98.95C189.259 98.95 189.009 98.5 189.009 97.75C189.009 96.55 189.159 95.35 189.159 94.15C189.159 93.5 189.159 93.05 189.909 93.05C191.609 93.05 196.609 93.4 196.709 96.3H196.759ZM191.259 73.3C193.709 76.5 194.009 86.05 189.309 87.65C189.209 87.65 189.109 87.6 189.059 87.6C188.959 87.5 188.959 87.35 188.959 87.25C188.959 82.5 188.609 76.8 188.609 72.05C188.609 70.3 190.959 72.95 191.259 73.3ZM218.005 77.1C218.105 77.35 218.105 77.6 218.105 77.9C218.105 84.7 217.205 91.5 217.205 98.35C217.205 98.95 217.205 100.9 218.105 100.9C218.455 100.9 218.805 100.85 219.205 100.8C220.705 100.7 220.705 101.05 220.905 99.4C221.105 97.8 221.155 96.2 221.155 94.6C221.155 87.65 220.855 80.75 220.855 73.8C220.855 72.6 221.205 71.45 221.205 70.3C221.205 69.35 220.855 68.7 219.805 68.7C219.055 68.7 218.305 68.9 217.705 69.4C217.005 70 216.405 73.1 215.955 74.15C215.105 76.4 213.855 78.45 213.005 80.7C212.155 82.8 209.255 88.45 207.905 90.2C207.705 89.25 207.655 88.25 207.655 87.3C207.655 81.45 207.805 75.65 207.805 69.85C207.805 69.4 207.805 68.5 207.155 68.5C206.355 68.5 204.005 69.2 204.005 70.2C204.005 71.5 204.255 72.75 204.255 74.05C204.255 75.3 204.205 76.6 204.205 77.85C204.205 81.2 204.505 84.55 204.505 87.9C204.505 90.25 204.205 92.6 204.205 95C204.205 95.8 204.255 98.95 205.455 98.95C205.955 98.95 207.755 98.85 208.105 98.6C208.655 98.25 209.005 96.15 209.255 95.45C210.405 92.05 212.155 88.8 213.855 85.6C214.555 84.3 217.355 77.55 218.005 77.15V77.1ZM235.827 101.1C239.627 100 241.677 95.1 241.677 91.4C241.677 90.85 241.677 90.45 240.977 90.45C240.077 90.45 239.227 90.3 238.327 90.3C237.877 90.3 237.477 90.3 237.077 90.55C236.277 91.05 237.177 97.35 233.977 97.35C230.727 97.35 230.627 90.05 230.427 87.8C230.377 86.9 230.177 86 230.177 85.1C230.177 83.3 231.727 83 233.177 83C234.877 83 236.577 83.15 238.277 83.15C240.177 83.15 241.377 82.85 241.377 80.65C241.377 76.15 238.927 68 233.377 68C226.177 68 225.727 79.9 225.727 84.95C225.727 89.85 227.327 101.4 233.927 101.4C234.577 101.4 235.227 101.3 235.827 101.1ZM230.727 78.05C230.727 77.65 230.727 77.25 230.727 76.8C230.727 75.2 230.777 71.9 233.027 71.9C235.327 71.9 237.077 76.05 237.077 77.95C237.077 79.15 236.427 79 235.527 79.15C234.377 79.35 233.177 79.7 231.977 79.7C231.627 79.7 230.627 79.6 230.627 79.1C230.627 78.75 230.727 78.4 230.727 78.05Z" fill="white"/>
<path d="M13.7828 197.6C14.5828 197.8 15.4828 197.9 16.3828 197.9C30.4828 197.9 32.0828 183.7 32.0828 172.7C32.0828 167.9 31.7828 162.8 30.6828 158C27.6828 144.3 12.2828 143.3 12.2828 136.5C12.2828 131.4 23.0828 130.4 26.6828 130.4C28.7828 130.4 30.8828 130.8 32.8828 130.8C33.0828 130.8 33.2828 130.3 33.2828 130.2C33.9828 128.2 34.5828 123.9 34.5828 121.9C34.5828 121.6 34.5828 121.2 34.3828 121L32.6828 120.9C24.3828 120.9 11.9828 122.2 5.98281 128.5C4.08281 130.5 2.48281 133 2.48281 135.9C2.48281 151.5 21.2828 150.8 24.1828 158.1C23.1828 157.9 22.0828 157.8 21.0828 157.8C9.18281 157.8 4.48281 161.8 4.48281 174C4.48281 181.1 5.38281 195.3 13.7828 197.6ZM17.7828 195.5L17.8828 195.4V195.5H17.7828ZM14.3828 167.4C16.7828 165.5 19.8828 164.6 22.7828 164.3C23.2828 166.9 23.5828 169.5 23.5828 172.1C23.5828 176.4 22.2828 186.4 20.0828 190C19.2828 190.7 18.3828 191.2 17.3828 191.6C12.7828 191 13.2828 182.6 13.2828 179.1C13.2828 175.2 13.6828 171.2 14.3828 167.4ZM72.2148 175C69.0148 161.7 65.4148 148.4 62.5148 135.1C62.1148 133.1 61.7148 128.5 59.8148 127.6C59.1148 127.2 57.8148 127.2 57.0148 127.2C56.0148 127.2 53.6148 127.3 52.8148 127.9C51.1148 129.2 51.3148 136.9 51.0148 139.1C49.5148 148.6 47.9148 158.1 46.6148 167.6C45.6148 175.3 42.9148 182.9 42.7148 190.6C44.0148 191.2 45.8148 191.7 47.3148 191.7C47.8148 191.7 48.3148 191.6 48.8148 191.5C51.7148 190.7 51.1148 190.8 51.3148 187.8C51.6148 182.5 53.0148 177.3 53.5148 172C54.4148 162.3 55.9148 152.8 57.4148 143.2C58.5148 143.9 59.7148 153.7 60.2148 155.7C61.4148 160.6 62.4148 165.6 63.6148 170.5C64.8148 175.2 66.3148 179.9 67.5148 184.6C68.5148 188.9 67.7148 191.1 72.9148 191.5H74.2148C75.1148 191.5 76.3148 191.5 76.3148 190.4C76.3148 189.1 72.8148 177.5 72.2148 175ZM112.045 144.2C112.245 144.7 112.245 145.2 112.245 145.8C112.245 159.4 110.445 173 110.445 186.7C110.445 187.9 110.445 191.8 112.245 191.8C112.945 191.8 113.645 191.7 114.445 191.6C117.445 191.4 117.445 192.1 117.845 188.8C118.245 185.6 118.345 182.4 118.345 179.2C118.345 165.3 117.745 151.5 117.745 137.6C117.745 135.2 118.445 132.9 118.445 130.6C118.445 128.7 117.745 127.4 115.645 127.4C114.145 127.4 112.645 127.8 111.445 128.8C110.045 130 108.845 136.2 107.945 138.3C106.245 142.8 103.745 146.9 102.045 151.4C100.345 155.6 94.5445 166.9 91.8445 170.4C91.4445 168.5 91.3445 166.5 91.3445 164.6C91.3445 152.9 91.6445 141.3 91.6445 129.7C91.6445 128.8 91.6445 127 90.3445 127C88.7445 127 84.0445 128.4 84.0445 130.4C84.0445 133 84.5445 135.5 84.5445 138.1C84.5445 140.6 84.4445 143.2 84.4445 145.7C84.4445 152.4 85.0445 159.1 85.0445 165.8C85.0445 170.5 84.4445 175.2 84.4445 180C84.4445 181.6 84.5445 187.9 86.9445 187.9C87.9445 187.9 91.5445 187.7 92.2445 187.2C93.3445 186.5 94.0445 182.3 94.5445 180.9C96.8445 174.1 100.345 167.6 103.745 161.2C105.145 158.6 110.745 145.1 112.045 144.3V144.2ZM151.19 196.6C153.29 192 153.89 186.9 153.89 181.9C153.89 179.2 153.69 176.5 153.39 173.8C152.59 165.3 150.69 159.7 143.79 158.1C151.59 154.2 152.09 144.5 152.09 136.8C152.09 128.2 150.29 114.9 138.89 114.9C128.69 114.8 124.49 126.3 124.49 132.9C124.49 133.9 130.79 135 131.79 135.2C132.39 131 132.99 123.3 138.59 123.3C143.69 123.3 143.89 131.5 143.89 135.3C143.89 140.2 143.09 145.6 141.99 150.3C140.89 155.1 134.29 154.2 130.49 154C129.29 156.7 129.39 162.3 131.89 162.6H133.69C145.99 162.6 146.99 171.2 146.99 181.5C146.99 185.5 145.49 196.2 140.09 196.2C134.49 196.2 133.89 188.2 133.29 184C132.29 184.2 125.99 184.9 125.99 185.9C125.99 193.7 131.79 204 140.39 204C144.99 204 149.29 200.7 151.19 196.6ZM173.755 194.6C172.555 184.8 171.855 174.9 171.855 165C172.055 166.9 185.955 195.2 187.855 197.3C189.355 197.3 192.755 195.7 192.755 193.9C192.755 192.5 179.255 166.3 177.455 163.6C176.855 162.8 175.355 161 175.355 159.9C175.355 157.3 197.355 133.9 197.355 129.7C197.355 129.5 197.255 129.3 197.255 129.2L193.355 126.5C191.855 127.2 184.955 137 183.355 139.1C179.455 144 174.555 148.3 171.955 154.1C171.955 150.1 172.755 146 172.755 141.9C172.755 138.7 172.555 135.4 172.555 132.2C172.555 127.2 172.855 122.1 172.855 117.1C172.855 116.6 172.955 115.5 172.655 115.1C171.955 114.1 166.155 114.3 164.855 114.2C165.155 138.6 165.255 163 165.255 187.4C165.255 190.7 164.855 194 164.855 197.3C164.855 198.9 165.055 200.5 165.255 202.1C165.555 204.3 165.255 204.6 167.755 204.6C169.155 204.6 173.655 204.5 174.555 203.3C174.255 202.7 174.555 201.4 174.555 200.8C174.555 198.7 174.055 196.6 173.755 194.6ZM221.584 192.5C237.884 192.5 243.884 176.4 243.884 162.5C243.884 148.9 240.184 128.3 222.684 128.3C205.584 128.3 199.784 144.4 199.784 159C199.784 172.4 204.784 192.5 221.584 192.5ZM222.684 135.7C233.184 135.7 236.384 151.5 236.384 159.6C236.384 168.4 232.984 185.2 221.584 185.2C212.784 185.2 208.184 170.5 207.584 163.4C207.284 161.4 207.284 159.2 207.284 157.1C207.284 146.6 210.084 135.7 222.684 135.7ZM255.227 188.3C254.027 188.3 253.027 189.2 253.027 190.4C252.927 193.1 252.827 195.9 252.827 198.7C252.827 199.1 252.727 200.3 253.027 200.7C253.527 201.4 257.127 201.5 258.027 201.5C259.227 201.5 260.127 200.6 260.127 199.4C260.127 196.5 260.127 193.5 260.027 190.5C260.027 189.4 259.227 188.6 258.027 188.5C257.127 188.4 256.127 188.4 255.227 188.3ZM252.027 126.2C253.027 135.3 252.727 145.9 253.027 155.2C253.027 157.3 253.027 159.4 253.027 161.6C253.027 166.6 252.827 171.6 252.827 176.6C252.827 177.1 252.727 178.2 253.027 178.7C253.427 179.4 257.227 179.5 258.027 179.5C259.227 179.5 260.127 178.6 260.127 177.4C260.127 162.6 259.727 147.7 259.727 132.9C259.727 129.6 260.127 126.4 260.127 123.1C260.127 121.6 260.027 120.2 259.827 118.7C259.527 116.9 260.027 116.2 257.727 116.2C256.627 116.2 251.727 116.3 251.327 117.6C251.527 118 251.227 119.5 251.227 120.1C251.227 122.1 251.727 124.2 252.027 126.2Z" fill="white"/>
</svg>
