<svg xmlns="http://www.w3.org/2000/svg" width="53" height="53" fill="none" viewBox="0 0 53 53">
  <rect width="53" height="53" fill="#00ACED" rx="26.5"/>
  <path fill="#F6F5FA" d="M39.706 19.785c-.938.403-1.93.666-2.946.781a5.054 5.054 0 0 0 2.274-2.78 10.368 10.368 0 0 1-3.234 1.218 5.172 5.172 0 0 0-3.743-1.563 5.078 5.078 0 0 0-5.117 5.024c0 .381.045.761.133 1.133a14.665 14.665 0 0 1-10.625-5.25 4.937 4.937 0 0 0-.695 2.53 5 5 0 0 0 2.273 4.165 5.211 5.211 0 0 1-2.344-.625v.062a5.055 5.055 0 0 0 4.118 4.93 5.12 5.12 0 0 1-2.32.086 5.117 5.117 0 0 0 4.788 3.492 10.554 10.554 0 0 1-7.562 2.094 14.774 14.774 0 0 0 7.867 2.273c7.909.14 14.436-6.153 14.586-14.062v-.883a10.28 10.28 0 0 0 2.547-2.625"/>
</svg>
