<svg xmlns="http://www.w3.org/2000/svg" width="53" height="53" fill="none" viewBox="0 0 53 53">
  <rect width="53" height="53" fill="#45668E" rx="26.5"/>
  <path fill="#F6F5FA" fill-rule="evenodd" d="M23.729 35.66H25.4a1.41 1.41 0 0 0 .766-.34c.155-.219.237-.483.233-.753 0 0 0-2.287 1.01-2.626 1.008-.339 2.343 2.212 3.735 3.191a2.62 2.62 0 0 0 1.868.574l3.737-.056s1.961-.122 1.027-1.694a12.688 12.688 0 0 0-2.802-3.276c-2.345-2.222-2.036-1.883.794-5.695 1.719-2.335 2.41-3.766 2.195-4.378-.215-.612-1.466-.433-1.466-.433h-4.213a.927.927 0 0 0-.542.094 1.19 1.19 0 0 0-.373.462 25.12 25.12 0 0 1-1.56 3.35c-1.868 3.248-2.625 3.418-2.933 3.22-.71-.47-.533-1.883-.533-2.89 0-3.144.467-4.452-.934-4.791a7.082 7.082 0 0 0-1.97-.198 8.929 8.929 0 0 0-3.494.367c-.477.236-.85.772-.626.8.48.044.926.273 1.242.64.293.603.437 1.269.42 1.94 0 0 .253 3.7-.578 4.16-.57.32-1.345-.33-3.017-3.275a27.644 27.644 0 0 1-1.458-3.154 1.27 1.27 0 0 0-.308-.47 1.72 1.72 0 0 0-.644-.264l-4.026.019s-.598 0-.822.282c-.224.282 0 .725 0 .725s3.138 7.474 6.688 11.24a9.534 9.534 0 0 0 6.95 3.228h-.038Z" clip-rule="evenodd"/>
</svg>
